<?xml version="1.0" standalone="no"?>
 <!DOCTYPE svg PUBLIC "-//W3C//DTD SVG 1.1//EN" 
 "http://www.w3.org/Graphics/SVG/1.1/DTD/svg11.dtd"> 
<svg xmlns="http://www.w3.org/2000/svg" version="1.1" 
    width="41.9989cm" height="29.7002cm" viewBox="0 0 165350 116930 ">
<title>SVG Picture created as Forsteri-top-Edge_Cuts.svg date 2019/08/23 08:53:43 </title>
  <desc>Picture generated by PCBNEW </desc>
<g style="fill:#000000; fill-opacity:1;stroke:#000000; stroke-opacity:1;
stroke-linecap:round; stroke-linejoin:round; "
 transform="translate(0 0) scale(1 1)">
</g>
<g style="fill:#000000; fill-opacity:0.0; 
stroke:#000000; stroke-width:-0.000393701; stroke-opacity:1; 
stroke-linecap:round; stroke-linejoin:round;">
</g>
<g style="fill:#000000; fill-opacity:0.0; 
stroke:#000000; stroke-width:39.3701; stroke-opacity:1; 
stroke-linecap:round; stroke-linejoin:round;">
</g>
<g style="fill:#000000; fill-opacity:0.0; 
stroke:#000000; stroke-width:59.0551; stroke-opacity:1; 
stroke-linecap:round; stroke-linejoin:round;">
<rect x="118106" y="99607.2" width="42519.7" height="12598.4" rx="0" />
</g>
<g style="fill:#000000; fill-opacity:0.0; 
stroke:#000000; stroke-width:39.3701; stroke-opacity:1; 
stroke-linecap:round; stroke-linejoin:round;">
</g>
<g style="fill:#000000; fill-opacity:0.0; 
stroke:#000000; stroke-width:59.0551; stroke-opacity:1; 
stroke-linecap:round; stroke-linejoin:round;">
<rect x="3937.01" y="3937.01" width="157476" height="109056" rx="0" />
</g>
<g style="fill:#000000; fill-opacity:0.0; 
stroke:#000000; stroke-width:39.3701; stroke-opacity:1; 
stroke-linecap:round; stroke-linejoin:round;">
</g>
<g style="fill:#000000; fill-opacity:0.0; 
stroke:#000000; stroke-width:59.0551; stroke-opacity:1; 
stroke-linecap:round; stroke-linejoin:round;">
<rect x="4724.41" y="4724.41" width="155901" height="107481" rx="0" />
</g>
<g style="fill:#000000; fill-opacity:0.0; 
stroke:#000000; stroke-width:39.3701; stroke-opacity:1; 
stroke-linecap:round; stroke-linejoin:round;">
</g>
<g style="fill:#000000; fill-opacity:0.0; 
stroke:#000000; stroke-width:59.0551; stroke-opacity:1; 
stroke-linecap:round; stroke-linejoin:round;">
<path d="M23622 4724
L23622 3937
" />
</g>
<g style="fill:#000000; fill-opacity:0.0; 
stroke:#000000; stroke-width:39.3701; stroke-opacity:1; 
stroke-linecap:round; stroke-linejoin:round;">
</g>
<g style="fill:#000000; fill-opacity:0.0; 
stroke:#000000; stroke-width:59.0551; stroke-opacity:1; 
stroke-linecap:round; stroke-linejoin:round;">
<path d="M43307 4724
L43307 3937
" />
</g>
<g style="fill:#000000; fill-opacity:0.0; 
stroke:#000000; stroke-width:39.3701; stroke-opacity:1; 
stroke-linecap:round; stroke-linejoin:round;">
</g>
<g style="fill:#000000; fill-opacity:0.0; 
stroke:#000000; stroke-width:59.0551; stroke-opacity:1; 
stroke-linecap:round; stroke-linejoin:round;">
<path d="M62992 4724
L62992 3937
" />
</g>
<g style="fill:#000000; fill-opacity:0.0; 
stroke:#000000; stroke-width:39.3701; stroke-opacity:1; 
stroke-linecap:round; stroke-linejoin:round;">
</g>
<g style="fill:#000000; fill-opacity:0.0; 
stroke:#000000; stroke-width:59.0551; stroke-opacity:1; 
stroke-linecap:round; stroke-linejoin:round;">
<path d="M82677 4724
L82677 3937
" />
</g>
<g style="fill:#000000; fill-opacity:0.0; 
stroke:#000000; stroke-width:39.3701; stroke-opacity:1; 
stroke-linecap:round; stroke-linejoin:round;">
</g>
<g style="fill:#000000; fill-opacity:0.0; 
stroke:#000000; stroke-width:59.0551; stroke-opacity:1; 
stroke-linecap:round; stroke-linejoin:round;">
<path d="M102362 4724
L102362 3937
" />
</g>
<g style="fill:#000000; fill-opacity:0.0; 
stroke:#000000; stroke-width:39.3701; stroke-opacity:1; 
stroke-linecap:round; stroke-linejoin:round;">
</g>
<g style="fill:#000000; fill-opacity:0.0; 
stroke:#000000; stroke-width:59.0551; stroke-opacity:1; 
stroke-linecap:round; stroke-linejoin:round;">
<path d="M122047 4724
L122047 3937
" />
</g>
<g style="fill:#000000; fill-opacity:0.0; 
stroke:#000000; stroke-width:39.3701; stroke-opacity:1; 
stroke-linecap:round; stroke-linejoin:round;">
</g>
<g style="fill:#000000; fill-opacity:0.0; 
stroke:#000000; stroke-width:59.0551; stroke-opacity:1; 
stroke-linecap:round; stroke-linejoin:round;">
<path d="M141732 4724
L141732 3937
" />
</g>
<g style="fill:#000000; fill-opacity:0.0; 
stroke:#000000; stroke-width:39.3701; stroke-opacity:1; 
stroke-linecap:round; stroke-linejoin:round;">
</g>
<g style="fill:#000000; fill-opacity:0.0; 
stroke:#000000; stroke-width:59.0551; stroke-opacity:1; 
stroke-linecap:round; stroke-linejoin:round;">
<path d="M14199 4562
L13906 4562
" />
<path d="M14052 4562
L14052 4050
L14004 4123
L13955 4172
L13906 4196
" />
</g>
<g style="fill:#000000; fill-opacity:0.0; 
stroke:#000000; stroke-width:39.3701; stroke-opacity:1; 
stroke-linecap:round; stroke-linejoin:round;">
</g>
<g style="fill:#000000; fill-opacity:0.0; 
stroke:#000000; stroke-width:59.0551; stroke-opacity:1; 
stroke-linecap:round; stroke-linejoin:round;">
<path d="M33591 4099
L33615 4074
L33664 4050
L33786 4050
L33835 4074
L33859 4099
L33884 4147
L33884 4196
L33859 4269
L33567 4562
L33884 4562
" />
</g>
<g style="fill:#000000; fill-opacity:0.0; 
stroke:#000000; stroke-width:39.3701; stroke-opacity:1; 
stroke-linecap:round; stroke-linejoin:round;">
</g>
<g style="fill:#000000; fill-opacity:0.0; 
stroke:#000000; stroke-width:59.0551; stroke-opacity:1; 
stroke-linecap:round; stroke-linejoin:round;">
<path d="M53252 4050
L53569 4050
L53398 4245
L53471 4245
L53520 4269
L53544 4294
L53569 4342
L53569 4464
L53544 4513
L53520 4537
L53471 4562
L53325 4562
L53276 4537
L53252 4513
" />
</g>
<g style="fill:#000000; fill-opacity:0.0; 
stroke:#000000; stroke-width:39.3701; stroke-opacity:1; 
stroke-linecap:round; stroke-linejoin:round;">
</g>
<g style="fill:#000000; fill-opacity:0.0; 
stroke:#000000; stroke-width:59.0551; stroke-opacity:1; 
stroke-linecap:round; stroke-linejoin:round;">
<path d="M73205 4221
L73205 4562
" />
<path d="M73083 4026
L72961 4391
L73278 4391
" />
</g>
<g style="fill:#000000; fill-opacity:0.0; 
stroke:#000000; stroke-width:39.3701; stroke-opacity:1; 
stroke-linecap:round; stroke-linejoin:round;">
</g>
<g style="fill:#000000; fill-opacity:0.0; 
stroke:#000000; stroke-width:59.0551; stroke-opacity:1; 
stroke-linecap:round; stroke-linejoin:round;">
<path d="M92914 4050
L92671 4050
L92646 4294
L92671 4269
L92719 4245
L92841 4245
L92890 4269
L92914 4294
L92939 4342
L92939 4464
L92914 4513
L92890 4537
L92841 4562
L92719 4562
L92671 4537
L92646 4513
" />
</g>
<g style="fill:#000000; fill-opacity:0.0; 
stroke:#000000; stroke-width:39.3701; stroke-opacity:1; 
stroke-linecap:round; stroke-linejoin:round;">
</g>
<g style="fill:#000000; fill-opacity:0.0; 
stroke:#000000; stroke-width:59.0551; stroke-opacity:1; 
stroke-linecap:round; stroke-linejoin:round;">
<path d="M112575 4050
L112477 4050
L112429 4074
L112404 4099
L112356 4172
L112331 4269
L112331 4464
L112356 4513
L112380 4537
L112429 4562
L112526 4562
L112575 4537
L112599 4513
L112624 4464
L112624 4342
L112599 4294
L112575 4269
L112526 4245
L112429 4245
L112380 4269
L112356 4294
L112331 4342
" />
</g>
<g style="fill:#000000; fill-opacity:0.0; 
stroke:#000000; stroke-width:39.3701; stroke-opacity:1; 
stroke-linecap:round; stroke-linejoin:round;">
</g>
<g style="fill:#000000; fill-opacity:0.0; 
stroke:#000000; stroke-width:59.0551; stroke-opacity:1; 
stroke-linecap:round; stroke-linejoin:round;">
<path d="M131992 4050
L132333 4050
L132114 4562
" />
</g>
<g style="fill:#000000; fill-opacity:0.0; 
stroke:#000000; stroke-width:39.3701; stroke-opacity:1; 
stroke-linecap:round; stroke-linejoin:round;">
</g>
<g style="fill:#000000; fill-opacity:0.0; 
stroke:#000000; stroke-width:59.0551; stroke-opacity:1; 
stroke-linecap:round; stroke-linejoin:round;">
<path d="M151799 4269
L151750 4245
L151726 4221
L151701 4172
L151701 4147
L151726 4099
L151750 4074
L151799 4050
L151896 4050
L151945 4074
L151969 4099
L151994 4147
L151994 4172
L151969 4221
L151945 4245
L151896 4269
L151799 4269
L151750 4294
L151726 4318
L151701 4367
L151701 4464
L151726 4513
L151750 4537
L151799 4562
L151896 4562
L151945 4537
L151969 4513
L151994 4464
L151994 4367
L151969 4318
L151945 4294
L151896 4269
" />
</g>
<g style="fill:#000000; fill-opacity:0.0; 
stroke:#000000; stroke-width:39.3701; stroke-opacity:1; 
stroke-linecap:round; stroke-linejoin:round;">
</g>
<g style="fill:#000000; fill-opacity:0.0; 
stroke:#000000; stroke-width:59.0551; stroke-opacity:1; 
stroke-linecap:round; stroke-linejoin:round;">
<path d="M23622 112205
L23622 112992
" />
</g>
<g style="fill:#000000; fill-opacity:0.0; 
stroke:#000000; stroke-width:39.3701; stroke-opacity:1; 
stroke-linecap:round; stroke-linejoin:round;">
</g>
<g style="fill:#000000; fill-opacity:0.0; 
stroke:#000000; stroke-width:59.0551; stroke-opacity:1; 
stroke-linecap:round; stroke-linejoin:round;">
<path d="M43307 112205
L43307 112992
" />
</g>
<g style="fill:#000000; fill-opacity:0.0; 
stroke:#000000; stroke-width:39.3701; stroke-opacity:1; 
stroke-linecap:round; stroke-linejoin:round;">
</g>
<g style="fill:#000000; fill-opacity:0.0; 
stroke:#000000; stroke-width:59.0551; stroke-opacity:1; 
stroke-linecap:round; stroke-linejoin:round;">
<path d="M62992 112205
L62992 112992
" />
</g>
<g style="fill:#000000; fill-opacity:0.0; 
stroke:#000000; stroke-width:39.3701; stroke-opacity:1; 
stroke-linecap:round; stroke-linejoin:round;">
</g>
<g style="fill:#000000; fill-opacity:0.0; 
stroke:#000000; stroke-width:59.0551; stroke-opacity:1; 
stroke-linecap:round; stroke-linejoin:round;">
<path d="M82677 112205
L82677 112992
" />
</g>
<g style="fill:#000000; fill-opacity:0.0; 
stroke:#000000; stroke-width:39.3701; stroke-opacity:1; 
stroke-linecap:round; stroke-linejoin:round;">
</g>
<g style="fill:#000000; fill-opacity:0.0; 
stroke:#000000; stroke-width:59.0551; stroke-opacity:1; 
stroke-linecap:round; stroke-linejoin:round;">
<path d="M102362 112205
L102362 112992
" />
</g>
<g style="fill:#000000; fill-opacity:0.0; 
stroke:#000000; stroke-width:39.3701; stroke-opacity:1; 
stroke-linecap:round; stroke-linejoin:round;">
</g>
<g style="fill:#000000; fill-opacity:0.0; 
stroke:#000000; stroke-width:59.0551; stroke-opacity:1; 
stroke-linecap:round; stroke-linejoin:round;">
<path d="M122047 112205
L122047 112992
" />
</g>
<g style="fill:#000000; fill-opacity:0.0; 
stroke:#000000; stroke-width:39.3701; stroke-opacity:1; 
stroke-linecap:round; stroke-linejoin:round;">
</g>
<g style="fill:#000000; fill-opacity:0.0; 
stroke:#000000; stroke-width:59.0551; stroke-opacity:1; 
stroke-linecap:round; stroke-linejoin:round;">
<path d="M141732 112205
L141732 112992
" />
</g>
<g style="fill:#000000; fill-opacity:0.0; 
stroke:#000000; stroke-width:39.3701; stroke-opacity:1; 
stroke-linecap:round; stroke-linejoin:round;">
</g>
<g style="fill:#000000; fill-opacity:0.0; 
stroke:#000000; stroke-width:59.0551; stroke-opacity:1; 
stroke-linecap:round; stroke-linejoin:round;">
<path d="M14199 112830
L13906 112830
" />
<path d="M14052 112830
L14052 112319
L14004 112392
L13955 112440
L13906 112465
" />
</g>
<g style="fill:#000000; fill-opacity:0.0; 
stroke:#000000; stroke-width:39.3701; stroke-opacity:1; 
stroke-linecap:round; stroke-linejoin:round;">
</g>
<g style="fill:#000000; fill-opacity:0.0; 
stroke:#000000; stroke-width:59.0551; stroke-opacity:1; 
stroke-linecap:round; stroke-linejoin:round;">
<path d="M33591 112367
L33615 112343
L33664 112319
L33786 112319
L33835 112343
L33859 112367
L33884 112416
L33884 112465
L33859 112538
L33567 112830
L33884 112830
" />
</g>
<g style="fill:#000000; fill-opacity:0.0; 
stroke:#000000; stroke-width:39.3701; stroke-opacity:1; 
stroke-linecap:round; stroke-linejoin:round;">
</g>
<g style="fill:#000000; fill-opacity:0.0; 
stroke:#000000; stroke-width:59.0551; stroke-opacity:1; 
stroke-linecap:round; stroke-linejoin:round;">
<path d="M53252 112319
L53569 112319
L53398 112513
L53471 112513
L53520 112538
L53544 112562
L53569 112611
L53569 112733
L53544 112782
L53520 112806
L53471 112830
L53325 112830
L53276 112806
L53252 112782
" />
</g>
<g style="fill:#000000; fill-opacity:0.0; 
stroke:#000000; stroke-width:39.3701; stroke-opacity:1; 
stroke-linecap:round; stroke-linejoin:round;">
</g>
<g style="fill:#000000; fill-opacity:0.0; 
stroke:#000000; stroke-width:59.0551; stroke-opacity:1; 
stroke-linecap:round; stroke-linejoin:round;">
<path d="M73205 112489
L73205 112830
" />
<path d="M73083 112294
L72961 112660
L73278 112660
" />
</g>
<g style="fill:#000000; fill-opacity:0.0; 
stroke:#000000; stroke-width:39.3701; stroke-opacity:1; 
stroke-linecap:round; stroke-linejoin:round;">
</g>
<g style="fill:#000000; fill-opacity:0.0; 
stroke:#000000; stroke-width:59.0551; stroke-opacity:1; 
stroke-linecap:round; stroke-linejoin:round;">
<path d="M92914 112319
L92671 112319
L92646 112562
L92671 112538
L92719 112513
L92841 112513
L92890 112538
L92914 112562
L92939 112611
L92939 112733
L92914 112782
L92890 112806
L92841 112830
L92719 112830
L92671 112806
L92646 112782
" />
</g>
<g style="fill:#000000; fill-opacity:0.0; 
stroke:#000000; stroke-width:39.3701; stroke-opacity:1; 
stroke-linecap:round; stroke-linejoin:round;">
</g>
<g style="fill:#000000; fill-opacity:0.0; 
stroke:#000000; stroke-width:59.0551; stroke-opacity:1; 
stroke-linecap:round; stroke-linejoin:round;">
<path d="M112575 112319
L112477 112319
L112429 112343
L112404 112367
L112356 112440
L112331 112538
L112331 112733
L112356 112782
L112380 112806
L112429 112830
L112526 112830
L112575 112806
L112599 112782
L112624 112733
L112624 112611
L112599 112562
L112575 112538
L112526 112513
L112429 112513
L112380 112538
L112356 112562
L112331 112611
" />
</g>
<g style="fill:#000000; fill-opacity:0.0; 
stroke:#000000; stroke-width:39.3701; stroke-opacity:1; 
stroke-linecap:round; stroke-linejoin:round;">
</g>
<g style="fill:#000000; fill-opacity:0.0; 
stroke:#000000; stroke-width:59.0551; stroke-opacity:1; 
stroke-linecap:round; stroke-linejoin:round;">
<path d="M131992 112319
L132333 112319
L132114 112830
" />
</g>
<g style="fill:#000000; fill-opacity:0.0; 
stroke:#000000; stroke-width:39.3701; stroke-opacity:1; 
stroke-linecap:round; stroke-linejoin:round;">
</g>
<g style="fill:#000000; fill-opacity:0.0; 
stroke:#000000; stroke-width:59.0551; stroke-opacity:1; 
stroke-linecap:round; stroke-linejoin:round;">
<path d="M151799 112538
L151750 112513
L151726 112489
L151701 112440
L151701 112416
L151726 112367
L151750 112343
L151799 112319
L151896 112319
L151945 112343
L151969 112367
L151994 112416
L151994 112440
L151969 112489
L151945 112513
L151896 112538
L151799 112538
L151750 112562
L151726 112587
L151701 112635
L151701 112733
L151726 112782
L151750 112806
L151799 112830
L151896 112830
L151945 112806
L151969 112782
L151994 112733
L151994 112635
L151969 112587
L151945 112562
L151896 112538
" />
</g>
<g style="fill:#000000; fill-opacity:0.0; 
stroke:#000000; stroke-width:39.3701; stroke-opacity:1; 
stroke-linecap:round; stroke-linejoin:round;">
</g>
<g style="fill:#000000; fill-opacity:0.0; 
stroke:#000000; stroke-width:59.0551; stroke-opacity:1; 
stroke-linecap:round; stroke-linejoin:round;">
<path d="M3937 23622
L4724 23622
" />
</g>
<g style="fill:#000000; fill-opacity:0.0; 
stroke:#000000; stroke-width:39.3701; stroke-opacity:1; 
stroke-linecap:round; stroke-linejoin:round;">
</g>
<g style="fill:#000000; fill-opacity:0.0; 
stroke:#000000; stroke-width:59.0551; stroke-opacity:1; 
stroke-linecap:round; stroke-linejoin:round;">
<path d="M3937 43307
L4724 43307
" />
</g>
<g style="fill:#000000; fill-opacity:0.0; 
stroke:#000000; stroke-width:39.3701; stroke-opacity:1; 
stroke-linecap:round; stroke-linejoin:round;">
</g>
<g style="fill:#000000; fill-opacity:0.0; 
stroke:#000000; stroke-width:59.0551; stroke-opacity:1; 
stroke-linecap:round; stroke-linejoin:round;">
<path d="M3937 62992
L4724 62992
" />
</g>
<g style="fill:#000000; fill-opacity:0.0; 
stroke:#000000; stroke-width:39.3701; stroke-opacity:1; 
stroke-linecap:round; stroke-linejoin:round;">
</g>
<g style="fill:#000000; fill-opacity:0.0; 
stroke:#000000; stroke-width:59.0551; stroke-opacity:1; 
stroke-linecap:round; stroke-linejoin:round;">
<path d="M3937 82677
L4724 82677
" />
</g>
<g style="fill:#000000; fill-opacity:0.0; 
stroke:#000000; stroke-width:39.3701; stroke-opacity:1; 
stroke-linecap:round; stroke-linejoin:round;">
</g>
<g style="fill:#000000; fill-opacity:0.0; 
stroke:#000000; stroke-width:59.0551; stroke-opacity:1; 
stroke-linecap:round; stroke-linejoin:round;">
<path d="M3937 102362
L4724 102362
" />
</g>
<g style="fill:#000000; fill-opacity:0.0; 
stroke:#000000; stroke-width:39.3701; stroke-opacity:1; 
stroke-linecap:round; stroke-linejoin:round;">
</g>
<g style="fill:#000000; fill-opacity:0.0; 
stroke:#000000; stroke-width:59.0551; stroke-opacity:1; 
stroke-linecap:round; stroke-linejoin:round;">
<path d="M4208 13864
L4452 13864
" />
<path d="M4160 14011
L4330 13499
L4501 14011
" />
</g>
<g style="fill:#000000; fill-opacity:0.0; 
stroke:#000000; stroke-width:39.3701; stroke-opacity:1; 
stroke-linecap:round; stroke-linejoin:round;">
</g>
<g style="fill:#000000; fill-opacity:0.0; 
stroke:#000000; stroke-width:59.0551; stroke-opacity:1; 
stroke-linecap:round; stroke-linejoin:round;">
<path d="M4367 33428
L4440 33452
L4464 33476
L4489 33525
L4489 33598
L4464 33647
L4440 33671
L4391 33696
L4196 33696
L4196 33184
L4367 33184
L4416 33208
L4440 33233
L4464 33281
L4464 33330
L4440 33379
L4416 33403
L4367 33428
L4196 33428
" />
</g>
<g style="fill:#000000; fill-opacity:0.0; 
stroke:#000000; stroke-width:39.3701; stroke-opacity:1; 
stroke-linecap:round; stroke-linejoin:round;">
</g>
<g style="fill:#000000; fill-opacity:0.0; 
stroke:#000000; stroke-width:59.0551; stroke-opacity:1; 
stroke-linecap:round; stroke-linejoin:round;">
<path d="M4489 53332
L4464 53356
L4391 53381
L4342 53381
L4269 53356
L4221 53308
L4196 53259
L4172 53161
L4172 53088
L4196 52991
L4221 52942
L4269 52893
L4342 52869
L4391 52869
L4464 52893
L4489 52918
" />
</g>
<g style="fill:#000000; fill-opacity:0.0; 
stroke:#000000; stroke-width:39.3701; stroke-opacity:1; 
stroke-linecap:round; stroke-linejoin:round;">
</g>
<g style="fill:#000000; fill-opacity:0.0; 
stroke:#000000; stroke-width:59.0551; stroke-opacity:1; 
stroke-linecap:round; stroke-linejoin:round;">
<path d="M4196 73066
L4196 72554
L4318 72554
L4391 72578
L4440 72627
L4464 72676
L4489 72773
L4489 72846
L4464 72944
L4440 72993
L4391 73041
L4318 73066
L4196 73066
" />
</g>
<g style="fill:#000000; fill-opacity:0.0; 
stroke:#000000; stroke-width:39.3701; stroke-opacity:1; 
stroke-linecap:round; stroke-linejoin:round;">
</g>
<g style="fill:#000000; fill-opacity:0.0; 
stroke:#000000; stroke-width:59.0551; stroke-opacity:1; 
stroke-linecap:round; stroke-linejoin:round;">
<path d="M4221 92483
L4391 92483
" />
<path d="M4464 92751
L4221 92751
L4221 92239
L4464 92239
" />
</g>
<g style="fill:#000000; fill-opacity:0.0; 
stroke:#000000; stroke-width:39.3701; stroke-opacity:1; 
stroke-linecap:round; stroke-linejoin:round;">
</g>
<g style="fill:#000000; fill-opacity:0.0; 
stroke:#000000; stroke-width:59.0551; stroke-opacity:1; 
stroke-linecap:round; stroke-linejoin:round;">
<path d="M4403 112168
L4233 112168
" />
<path d="M4233 112436
L4233 111924
L4476 111924
" />
</g>
<g style="fill:#000000; fill-opacity:0.0; 
stroke:#000000; stroke-width:39.3701; stroke-opacity:1; 
stroke-linecap:round; stroke-linejoin:round;">
</g>
<g style="fill:#000000; fill-opacity:0.0; 
stroke:#000000; stroke-width:59.0551; stroke-opacity:1; 
stroke-linecap:round; stroke-linejoin:round;">
<path d="M161412 23622
L160625 23622
" />
</g>
<g style="fill:#000000; fill-opacity:0.0; 
stroke:#000000; stroke-width:39.3701; stroke-opacity:1; 
stroke-linecap:round; stroke-linejoin:round;">
</g>
<g style="fill:#000000; fill-opacity:0.0; 
stroke:#000000; stroke-width:59.0551; stroke-opacity:1; 
stroke-linecap:round; stroke-linejoin:round;">
<path d="M161412 43307
L160625 43307
" />
</g>
<g style="fill:#000000; fill-opacity:0.0; 
stroke:#000000; stroke-width:39.3701; stroke-opacity:1; 
stroke-linecap:round; stroke-linejoin:round;">
</g>
<g style="fill:#000000; fill-opacity:0.0; 
stroke:#000000; stroke-width:59.0551; stroke-opacity:1; 
stroke-linecap:round; stroke-linejoin:round;">
<path d="M161412 62992
L160625 62992
" />
</g>
<g style="fill:#000000; fill-opacity:0.0; 
stroke:#000000; stroke-width:39.3701; stroke-opacity:1; 
stroke-linecap:round; stroke-linejoin:round;">
</g>
<g style="fill:#000000; fill-opacity:0.0; 
stroke:#000000; stroke-width:59.0551; stroke-opacity:1; 
stroke-linecap:round; stroke-linejoin:round;">
<path d="M161412 82677
L160625 82677
" />
</g>
<g style="fill:#000000; fill-opacity:0.0; 
stroke:#000000; stroke-width:39.3701; stroke-opacity:1; 
stroke-linecap:round; stroke-linejoin:round;">
</g>
<g style="fill:#000000; fill-opacity:0.0; 
stroke:#000000; stroke-width:59.0551; stroke-opacity:1; 
stroke-linecap:round; stroke-linejoin:round;">
<path d="M161412 102362
L160625 102362
" />
</g>
<g style="fill:#000000; fill-opacity:0.0; 
stroke:#000000; stroke-width:39.3701; stroke-opacity:1; 
stroke-linecap:round; stroke-linejoin:round;">
</g>
<g style="fill:#000000; fill-opacity:0.0; 
stroke:#000000; stroke-width:59.0551; stroke-opacity:1; 
stroke-linecap:round; stroke-linejoin:round;">
<path d="M160897 13864
L161141 13864
" />
<path d="M160848 14011
L161019 13499
L161189 14011
" />
</g>
<g style="fill:#000000; fill-opacity:0.0; 
stroke:#000000; stroke-width:39.3701; stroke-opacity:1; 
stroke-linecap:round; stroke-linejoin:round;">
</g>
<g style="fill:#000000; fill-opacity:0.0; 
stroke:#000000; stroke-width:59.0551; stroke-opacity:1; 
stroke-linecap:round; stroke-linejoin:round;">
<path d="M161055 33428
L161128 33452
L161153 33476
L161177 33525
L161177 33598
L161153 33647
L161128 33671
L161080 33696
L160885 33696
L160885 33184
L161055 33184
L161104 33208
L161128 33233
L161153 33281
L161153 33330
L161128 33379
L161104 33403
L161055 33428
L160885 33428
" />
</g>
<g style="fill:#000000; fill-opacity:0.0; 
stroke:#000000; stroke-width:39.3701; stroke-opacity:1; 
stroke-linecap:round; stroke-linejoin:round;">
</g>
<g style="fill:#000000; fill-opacity:0.0; 
stroke:#000000; stroke-width:59.0551; stroke-opacity:1; 
stroke-linecap:round; stroke-linejoin:round;">
<path d="M161177 53332
L161153 53356
L161080 53381
L161031 53381
L160958 53356
L160909 53308
L160885 53259
L160860 53161
L160860 53088
L160885 52991
L160909 52942
L160958 52893
L161031 52869
L161080 52869
L161153 52893
L161177 52918
" />
</g>
<g style="fill:#000000; fill-opacity:0.0; 
stroke:#000000; stroke-width:39.3701; stroke-opacity:1; 
stroke-linecap:round; stroke-linejoin:round;">
</g>
<g style="fill:#000000; fill-opacity:0.0; 
stroke:#000000; stroke-width:59.0551; stroke-opacity:1; 
stroke-linecap:round; stroke-linejoin:round;">
<path d="M160885 73066
L160885 72554
L161007 72554
L161080 72578
L161128 72627
L161153 72676
L161177 72773
L161177 72846
L161153 72944
L161128 72993
L161080 73041
L161007 73066
L160885 73066
" />
</g>
<g style="fill:#000000; fill-opacity:0.0; 
stroke:#000000; stroke-width:39.3701; stroke-opacity:1; 
stroke-linecap:round; stroke-linejoin:round;">
</g>
<g style="fill:#000000; fill-opacity:0.0; 
stroke:#000000; stroke-width:59.0551; stroke-opacity:1; 
stroke-linecap:round; stroke-linejoin:round;">
<path d="M160909 92483
L161080 92483
" />
<path d="M161153 92751
L160909 92751
L160909 92239
L161153 92239
" />
</g>
<g style="fill:#000000; fill-opacity:0.0; 
stroke:#000000; stroke-width:39.3701; stroke-opacity:1; 
stroke-linecap:round; stroke-linejoin:round;">
</g>
<g style="fill:#000000; fill-opacity:0.0; 
stroke:#000000; stroke-width:59.0551; stroke-opacity:1; 
stroke-linecap:round; stroke-linejoin:round;">
<path d="M161092 112168
L160921 112168
" />
<path d="M160921 112436
L160921 111924
L161165 111924
" />
</g>
<g style="fill:#000000; fill-opacity:0.0; 
stroke:#000000; stroke-width:39.3701; stroke-opacity:1; 
stroke-linecap:round; stroke-linejoin:round;">
</g>
<g style="fill:#000000; fill-opacity:0.0; 
stroke:#000000; stroke-width:59.0551; stroke-opacity:1; 
stroke-linecap:round; stroke-linejoin:round;">
<path d="M127331 110543
L127331 109953
L127471 109953
L127556 109981
L127612 110037
L127640 110093
L127668 110206
L127668 110290
L127640 110403
L127612 110459
L127556 110515
L127471 110543
L127331 110543
" />
<path d="M128174 110543
L128174 110234
L128146 110178
L128090 110149
L127977 110149
L127921 110178
" />
<path d="M128174 110515
L128118 110543
L127977 110543
L127921 110515
L127893 110459
L127893 110403
L127921 110346
L127977 110318
L128118 110318
L128174 110290
" />
<path d="M128371 110149
L128596 110149
" />
<path d="M128456 109953
L128456 110459
L128484 110515
L128540 110543
L128596 110543
" />
<path d="M129018 110515
L128962 110543
L128849 110543
L128793 110515
L128765 110459
L128765 110234
L128793 110178
L128849 110149
L128962 110149
L129018 110178
L129046 110234
L129046 110290
L128765 110346
" />
<path d="M129299 110487
L129327 110515
L129299 110543
L129271 110515
L129299 110487
L129299 110543
" />
<path d="M129299 110178
L129327 110206
L129299 110234
L129271 110206
L129299 110178
L129299 110234
" />
</g>
<g style="fill:#000000; fill-opacity:0.0; 
stroke:#000000; stroke-width:39.3701; stroke-opacity:1; 
stroke-linecap:round; stroke-linejoin:round;">
</g>
<g style="fill:#000000; fill-opacity:0.0; 
stroke:#000000; stroke-width:59.0551; stroke-opacity:1; 
stroke-linecap:round; stroke-linejoin:round;">
<path d="M118105 110827
L160625 110827
" />
</g>
<g style="fill:#000000; fill-opacity:0.0; 
stroke:#000000; stroke-width:39.3701; stroke-opacity:1; 
stroke-linecap:round; stroke-linejoin:round;">
</g>
<g style="fill:#000000; fill-opacity:0.0; 
stroke:#000000; stroke-width:59.0551; stroke-opacity:1; 
stroke-linecap:round; stroke-linejoin:round;">
<path d="M118669 111645
L118669 111055
" />
<path d="M119007 111645
L118754 111308
" />
<path d="M119007 111055
L118669 111392
" />
<path d="M119260 111645
L119260 111252
" />
<path d="M119260 111055
L119232 111083
L119260 111111
L119288 111083
L119260 111055
L119260 111111
" />
<path d="M119878 111589
L119850 111617
L119766 111645
L119710 111645
L119625 111617
L119569 111561
L119541 111505
L119513 111392
L119513 111308
L119541 111196
L119569 111139
L119625 111083
L119710 111055
L119766 111055
L119850 111083
L119878 111111
" />
<path d="M120385 111645
L120385 111336
L120357 111280
L120300 111252
L120188 111252
L120132 111280
" />
<path d="M120385 111617
L120328 111645
L120188 111645
L120132 111617
L120103 111561
L120103 111505
L120132 111449
L120188 111421
L120328 111421
L120385 111392
" />
<path d="M120919 111645
L120919 111055
" />
<path d="M120919 111617
L120863 111645
L120750 111645
L120694 111617
L120666 111589
L120638 111533
L120638 111364
L120666 111308
L120694 111280
L120750 111252
L120863 111252
L120919 111280
" />
<path d="M121650 111336
L121847 111336
" />
<path d="M121931 111645
L121650 111645
L121650 111055
L121931 111055
" />
<path d="M122184 111589
L122213 111617
L122184 111645
L122156 111617
L122184 111589
L122184 111645
" />
<path d="M122466 111645
L122466 111055
L122606 111055
L122691 111083
L122747 111139
L122775 111196
L122803 111308
L122803 111392
L122775 111505
L122747 111561
L122691 111617
L122606 111645
L122466 111645
" />
<path d="M123056 111589
L123084 111617
L123056 111645
L123028 111617
L123056 111589
L123056 111645
" />
<path d="M123309 111477
L123591 111477
" />
<path d="M123253 111645
L123450 111055
L123647 111645
" />
<path d="M123844 111589
L123872 111617
L123844 111645
L123815 111617
L123844 111589
L123844 111645
" />
<path d="M125025 111252
L125025 111842
" />
<path d="M125025 111280
L125081 111252
L125193 111252
L125250 111280
L125278 111308
L125306 111364
L125306 111533
L125278 111589
L125250 111617
L125193 111645
L125081 111645
L125025 111617
" />
<path d="M125812 111617
L125756 111645
L125643 111645
L125587 111617
L125559 111589
L125531 111533
L125531 111364
L125559 111308
L125587 111280
L125643 111252
L125756 111252
L125812 111280
" />
<path d="M126065 111645
L126065 111055
" />
<path d="M126065 111280
L126121 111252
L126234 111252
L126290 111280
L126318 111308
L126346 111364
L126346 111533
L126318 111589
L126290 111617
L126234 111645
L126121 111645
L126065 111617
" />
<path d="M126600 111252
L126600 111645
" />
<path d="M126600 111308
L126628 111280
L126684 111252
L126768 111252
L126824 111280
L126853 111336
L126853 111645
" />
<path d="M127359 111617
L127303 111645
L127190 111645
L127134 111617
L127106 111561
L127106 111336
L127134 111280
L127190 111252
L127303 111252
L127359 111280
L127387 111336
L127387 111392
L127106 111449
" />
<path d="M127584 111252
L127696 111645
L127809 111364
L127921 111645
L128034 111252
" />
<path d="M128877 111870
L128849 111842
L128793 111758
L128765 111702
L128737 111617
L128709 111477
L128709 111364
L128737 111224
L128765 111139
L128793 111083
L128849 110999
L128877 110971
" />
<path d="M129384 111055
L129102 111055
L129074 111336
L129102 111308
L129159 111280
L129299 111280
L129355 111308
L129384 111336
L129412 111392
L129412 111533
L129384 111589
L129355 111617
L129299 111645
L129159 111645
L129102 111617
L129074 111589
" />
<path d="M129665 111589
L129693 111617
L129665 111645
L129637 111617
L129665 111589
L129665 111645
" />
<path d="M130255 111645
L129918 111645
" />
<path d="M130087 111645
L130087 111055
L130030 111139
L129974 111196
L129918 111224
" />
<path d="M130508 111589
L130537 111617
L130508 111645
L130480 111617
L130508 111589
L130508 111645
" />
<path d="M130761 111111
L130790 111083
L130846 111055
L130986 111055
L131043 111083
L131071 111111
L131099 111167
L131099 111224
L131071 111308
L130733 111645
L131099 111645
" />
<path d="M131296 111870
L131324 111842
L131380 111758
L131408 111702
L131436 111617
L131465 111477
L131465 111364
L131436 111224
L131408 111139
L131380 111083
L131324 110999
L131296 110971
" />
<path d="M131746 111421
L132196 111421
" />
<path d="M132449 111111
L132477 111083
L132533 111055
L132674 111055
L132730 111083
L132758 111111
L132786 111167
L132786 111224
L132758 111308
L132421 111645
L132786 111645
" />
</g>
<g style="fill:#000000; fill-opacity:0.0; 
stroke:#000000; stroke-width:39.3701; stroke-opacity:1; 
stroke-linecap:round; stroke-linejoin:round;">
</g>
<g style="fill:#000000; fill-opacity:0.0; 
stroke:#000000; stroke-width:59.0551; stroke-opacity:1; 
stroke-linecap:round; stroke-linejoin:round;">
<path d="M118105 109646
L160625 109646
" />
</g>
<g style="fill:#000000; fill-opacity:0.0; 
stroke:#000000; stroke-width:39.3701; stroke-opacity:1; 
stroke-linecap:round; stroke-linejoin:round;">
</g>
<g style="fill:#000000; fill-opacity:0.0; 
stroke:#000000; stroke-width:118.11; stroke-opacity:1; 
stroke-linecap:round; stroke-linejoin:round;">
<path d="M152519 110543
L152322 110262
" />
<path d="M152181 110543
L152181 109953
L152406 109953
L152462 109981
L152490 110009
L152519 110065
L152519 110149
L152490 110206
L152462 110234
L152406 110262
L152181 110262
" />
<path d="M152997 110515
L152940 110543
L152828 110543
L152772 110515
L152743 110459
L152743 110234
L152772 110178
L152828 110149
L152940 110149
L152997 110178
L153025 110234
L153025 110290
L152743 110346
" />
<path d="M153222 110149
L153362 110543
L153503 110149
" />
<path d="M153728 110487
L153756 110515
L153728 110543
L153700 110515
L153728 110487
L153728 110543
" />
<path d="M153728 110178
L153756 110206
L153728 110234
L153700 110206
L153728 110178
L153728 110234
" />
</g>
<g style="fill:#000000; fill-opacity:0.0; 
stroke:#000000; stroke-width:39.3701; stroke-opacity:1; 
stroke-linecap:round; stroke-linejoin:round;">
</g>
<g style="fill:#000000; fill-opacity:0.0; 
stroke:#000000; stroke-width:59.0551; stroke-opacity:1; 
stroke-linecap:round; stroke-linejoin:round;">
<path d="M118641 110515
L118725 110543
L118866 110543
L118922 110515
L118950 110487
L118979 110431
L118979 110374
L118950 110318
L118922 110290
L118866 110262
L118754 110234
L118697 110206
L118669 110178
L118641 110121
L118641 110065
L118669 110009
L118697 109981
L118754 109953
L118894 109953
L118979 109981
" />
<path d="M119232 110543
L119232 110149
" />
<path d="M119232 109953
L119204 109981
L119232 110009
L119260 109981
L119232 109953
L119232 110009
" />
<path d="M119457 110149
L119766 110149
L119457 110543
L119766 110543
" />
<path d="M120216 110515
L120160 110543
L120047 110543
L119991 110515
L119963 110459
L119963 110234
L119991 110178
L120047 110149
L120160 110149
L120216 110178
L120244 110234
L120244 110290
L119963 110346
" />
<path d="M120497 110487
L120525 110515
L120497 110543
L120469 110515
L120497 110487
L120497 110543
" />
<path d="M120497 110178
L120525 110206
L120497 110234
L120469 110206
L120497 110178
L120497 110234
" />
<path d="M121200 110374
L121481 110374
" />
<path d="M121144 110543
L121341 109953
L121538 110543
" />
<path d="M121678 109953
L122044 109953
L121847 110178
L121931 110178
L121988 110206
L122016 110234
L122044 110290
L122044 110431
L122016 110487
L121988 110515
L121931 110543
L121763 110543
L121706 110515
L121678 110487
" />
</g>
<g style="fill:#000000; fill-opacity:0.0; 
stroke:#000000; stroke-width:39.3701; stroke-opacity:1; 
stroke-linecap:round; stroke-linejoin:round;">
</g>
<g style="fill:#000000; fill-opacity:0.0; 
stroke:#000000; stroke-width:59.0551; stroke-opacity:1; 
stroke-linecap:round; stroke-linejoin:round;">
<path d="M152134 111645
L152134 111055
" />
<path d="M152668 111645
L152668 111055
" />
<path d="M152668 111617
L152612 111645
L152499 111645
L152443 111617
L152415 111589
L152387 111533
L152387 111364
L152415 111308
L152443 111280
L152499 111252
L152612 111252
L152668 111280
" />
<path d="M152949 111589
L152977 111617
L152949 111645
L152921 111617
L152949 111589
L152949 111645
" />
<path d="M152949 111280
L152977 111308
L152949 111336
L152921 111308
L152949 111280
L152949 111336
" />
<path d="M153990 111645
L153652 111645
" />
<path d="M153821 111645
L153821 111055
L153765 111139
L153709 111196
L153652 111224
" />
<path d="M154665 111027
L154159 111786
" />
<path d="M155171 111645
L154833 111645
" />
<path d="M155002 111645
L155002 111055
L154946 111139
L154890 111196
L154833 111224
" />
</g>
<g style="fill:#000000; fill-opacity:0.0; 
stroke:#000000; stroke-width:39.3701; stroke-opacity:1; 
stroke-linecap:round; stroke-linejoin:round;">
</g>
<g style="fill:#000000; fill-opacity:0.0; 
stroke:#000000; stroke-width:59.0551; stroke-opacity:1; 
stroke-linecap:round; stroke-linejoin:round;">
<path d="M118105 108071
L160625 108071
" />
</g>
<g style="fill:#000000; fill-opacity:0.0; 
stroke:#000000; stroke-width:39.3701; stroke-opacity:1; 
stroke-linecap:round; stroke-linejoin:round;">
</g>
<g style="fill:#000000; fill-opacity:0.0; 
stroke:#000000; stroke-width:157.48; stroke-opacity:1; 
stroke-linecap:round; stroke-linejoin:round;">
<path d="M118780 108349
L119230 108349
" />
<path d="M118906 109136
L119005 108349
" />
<path d="M119394 109136
L119459 108611
" />
<path d="M119492 108349
L119450 108386
L119483 108424
L119525 108386
L119492 108349
L119483 108424
" />
<path d="M119722 108611
L120022 108611
" />
<path d="M119867 108349
L119783 109024
L119811 109099
L119881 109136
L119956 109136
" />
<path d="M120331 109136
L120261 109099
L120233 109024
L120317 108349
" />
<path d="M120936 109099
L120856 109136
L120706 109136
L120636 109099
L120607 109024
L120645 108724
L120692 108649
L120772 108611
L120921 108611
L120992 108649
L121020 108724
L121011 108799
L120626 108874
" />
<path d="M121315 109061
L121348 109099
L121306 109136
L121273 109099
L121315 109061
L121306 109136
" />
<path d="M121367 108649
L121400 108686
L121357 108724
L121325 108686
L121367 108649
L121357 108724
" />
</g>
<g style="fill:#000000; fill-opacity:0.0; 
stroke:#000000; stroke-width:39.3701; stroke-opacity:1; 
stroke-linecap:round; stroke-linejoin:round;">
</g>
<g style="fill:#000000; fill-opacity:0.0; 
stroke:#000000; stroke-width:59.0551; stroke-opacity:1; 
stroke-linecap:round; stroke-linejoin:round;">
<path d="M118866 107320
L118669 107320
" />
<path d="M118669 107630
L118669 107039
L118950 107039
" />
<path d="M119175 107630
L119175 107236
" />
<path d="M119175 107039
L119147 107067
L119175 107095
L119204 107067
L119175 107039
L119175 107095
" />
<path d="M119541 107630
L119485 107602
L119457 107545
L119457 107039
" />
<path d="M119991 107602
L119935 107630
L119822 107630
L119766 107602
L119738 107545
L119738 107320
L119766 107264
L119822 107236
L119935 107236
L119991 107264
L120019 107320
L120019 107377
L119738 107433
" />
<path d="M120272 107573
L120300 107602
L120272 107630
L120244 107602
L120272 107573
L120272 107630
" />
<path d="M120272 107264
L120300 107292
L120272 107320
L120244 107292
L120272 107264
L120272 107320
" />
<path d="M121200 107320
L121003 107320
" />
<path d="M121003 107630
L121003 107039
L121285 107039
" />
<path d="M121594 107630
L121538 107602
L121510 107573
L121481 107517
L121481 107349
L121510 107292
L121538 107264
L121594 107236
L121678 107236
L121734 107264
L121763 107292
L121791 107349
L121791 107517
L121763 107573
L121734 107602
L121678 107630
L121594 107630
" />
<path d="M122044 107630
L122044 107236
" />
<path d="M122044 107349
L122072 107292
L122100 107264
L122156 107236
L122213 107236
" />
<path d="M122381 107602
L122438 107630
L122550 107630
L122606 107602
L122634 107545
L122634 107517
L122606 107461
L122550 107433
L122466 107433
L122409 107405
L122381 107349
L122381 107320
L122409 107264
L122466 107236
L122550 107236
L122606 107264
" />
<path d="M122803 107236
L123028 107236
" />
<path d="M122887 107039
L122887 107545
L122916 107602
L122972 107630
L123028 107630
" />
<path d="M123450 107602
L123394 107630
L123281 107630
L123225 107602
L123197 107545
L123197 107320
L123225 107264
L123281 107236
L123394 107236
L123450 107264
L123478 107320
L123478 107377
L123197 107433
" />
<path d="M123731 107630
L123731 107236
" />
<path d="M123731 107349
L123759 107292
L123787 107264
L123844 107236
L123900 107236
" />
<path d="M124097 107630
L124097 107236
" />
<path d="M124097 107039
L124069 107067
L124097 107095
L124125 107067
L124097 107039
L124097 107095
" />
<path d="M124378 107405
L124828 107405
" />
<path d="M125025 107236
L125250 107236
" />
<path d="M125109 107039
L125109 107545
L125137 107602
L125193 107630
L125250 107630
" />
<path d="M125531 107630
L125475 107602
L125447 107573
L125418 107517
L125418 107349
L125447 107292
L125475 107264
L125531 107236
L125615 107236
L125671 107264
L125700 107292
L125728 107349
L125728 107517
L125700 107573
L125671 107602
L125615 107630
L125531 107630
" />
<path d="M125981 107236
L125981 107827
" />
<path d="M125981 107264
L126037 107236
L126150 107236
L126206 107264
L126234 107292
L126262 107349
L126262 107517
L126234 107573
L126206 107602
L126150 107630
L126037 107630
L125981 107602
" />
<path d="M126515 107573
L126543 107602
L126515 107630
L126487 107602
L126515 107573
L126515 107630
" />
<path d="M126796 107630
L126796 107039
" />
<path d="M126853 107405
L127021 107630
" />
<path d="M127021 107236
L126796 107461
" />
<path d="M127274 107630
L127274 107236
" />
<path d="M127274 107039
L127246 107067
L127274 107095
L127303 107067
L127274 107039
L127274 107095
" />
<path d="M127809 107602
L127752 107630
L127640 107630
L127584 107602
L127556 107573
L127528 107517
L127528 107349
L127556 107292
L127584 107264
L127640 107236
L127752 107236
L127809 107264
" />
<path d="M128315 107630
L128315 107320
L128287 107264
L128231 107236
L128118 107236
L128062 107264
" />
<path d="M128315 107602
L128259 107630
L128118 107630
L128062 107602
L128034 107545
L128034 107489
L128062 107433
L128118 107405
L128259 107405
L128315 107377
" />
<path d="M128849 107630
L128849 107039
" />
<path d="M128849 107602
L128793 107630
L128680 107630
L128624 107602
L128596 107573
L128568 107517
L128568 107349
L128596 107292
L128624 107264
L128680 107236
L128793 107236
L128849 107264
" />
<path d="M128990 107686
L129440 107686
" />
<path d="M129580 107236
L129580 107827
" />
<path d="M129580 107264
L129637 107236
L129749 107236
L129805 107264
L129833 107292
L129862 107349
L129862 107517
L129833 107573
L129805 107602
L129749 107630
L129637 107630
L129580 107602
" />
<path d="M130368 107602
L130312 107630
L130199 107630
L130143 107602
L130115 107573
L130087 107517
L130087 107349
L130115 107292
L130143 107264
L130199 107236
L130312 107236
L130368 107264
" />
<path d="M130621 107630
L130621 107039
" />
<path d="M130621 107264
L130677 107236
L130790 107236
L130846 107264
L130874 107292
L130902 107349
L130902 107517
L130874 107573
L130846 107602
L130790 107630
L130677 107630
L130621 107602
" />
</g>
<g style="fill:#000000; fill-opacity:0.0; 
stroke:#000000; stroke-width:39.3701; stroke-opacity:1; 
stroke-linecap:round; stroke-linejoin:round;">
</g>
<g style="fill:#000000; fill-opacity:0.0; 
stroke:#000000; stroke-width:59.0551; stroke-opacity:1; 
stroke-linecap:round; stroke-linejoin:round;">
<path d="M118105 105709
L160625 105709
" />
</g>
<g style="fill:#000000; fill-opacity:0.0; 
stroke:#000000; stroke-width:39.3701; stroke-opacity:1; 
stroke-linecap:round; stroke-linejoin:round;">
</g>
<g style="fill:#000000; fill-opacity:0.0; 
stroke:#000000; stroke-width:59.0551; stroke-opacity:1; 
stroke-linecap:round; stroke-linejoin:round;">
<path d="M118641 106539
L118725 106567
L118866 106567
L118922 106539
L118950 106510
L118979 106454
L118979 106398
L118950 106342
L118922 106314
L118866 106286
L118754 106257
L118697 106229
L118669 106201
L118641 106145
L118641 106089
L118669 106032
L118697 106004
L118754 105976
L118894 105976
L118979 106004
" />
<path d="M119232 106567
L119232 105976
" />
<path d="M119485 106567
L119485 106257
L119457 106201
L119400 106173
L119316 106173
L119260 106201
L119232 106229
" />
<path d="M119991 106539
L119935 106567
L119822 106567
L119766 106539
L119738 106482
L119738 106257
L119766 106201
L119822 106173
L119935 106173
L119991 106201
L120019 106257
L120019 106314
L119738 106370
" />
<path d="M120497 106539
L120441 106567
L120328 106567
L120272 106539
L120244 106482
L120244 106257
L120272 106201
L120328 106173
L120441 106173
L120497 106201
L120525 106257
L120525 106314
L120244 106370
" />
<path d="M120694 106173
L120919 106173
" />
<path d="M120778 105976
L120778 106482
L120806 106539
L120863 106567
L120919 106567
" />
<path d="M121116 106510
L121144 106539
L121116 106567
L121088 106539
L121116 106510
L121116 106567
" />
<path d="M121116 106201
L121144 106229
L121116 106257
L121088 106229
L121116 106201
L121116 106257
" />
</g>
<g style="fill:#000000; fill-opacity:0.0; 
stroke:#000000; stroke-width:39.3701; stroke-opacity:1; 
stroke-linecap:round; stroke-linejoin:round;">
</g>
<g style="fill:#000000; fill-opacity:0.0; 
stroke:#000000; stroke-width:59.0551; stroke-opacity:1; 
stroke-linecap:round; stroke-linejoin:round;">
<path d="M125979 109646
L125979 110827
" />
</g>
<g style="fill:#000000; fill-opacity:0.0; 
stroke:#000000; stroke-width:39.3701; stroke-opacity:1; 
stroke-linecap:round; stroke-linejoin:round;">
</g>
<g style="fill:#000000; fill-opacity:0.0; 
stroke:#000000; stroke-width:59.0551; stroke-opacity:1; 
stroke-linecap:round; stroke-linejoin:round;">
<path d="M151176 109646
L151176 112205
" />
</g>
<g style="fill:#C2C200; fill-opacity:0.0; 
stroke:#C2C200; stroke-width:59.0551; stroke-opacity:1; 
stroke-linecap:round; stroke-linejoin:round;">
</g>
<g style="fill:#C2C200; fill-opacity:0.0; 
stroke:#C2C200; stroke-width:39.3701; stroke-opacity:1; 
stroke-linecap:round; stroke-linejoin:round;">
<circle cx="37621.3" cy="10179.1" r="413.386" /> 
<circle cx="90316.2" cy="10179.1" r="413.386" /> 
<path d="M9687 26853
L9687 33942
" />
<path d="M13013 10278
L9726 26461
" />
<path d="M111119 8702
L14942 8702
" />
<path d="M116334 26460
L113047 10279
" />
<path d="M116373 33945
L116373 26853
" />
<path d="M114426 43059
L116328 34364
" />
<path d="M97917 44608
L112503 44608
" />
<path d="M69434 50363
L97524 44647
" />
<path d="M60765 50402
L69042 50402
" />
<path d="M32279 44647
L60373 50362
" />
<path d="M13557 44608
L31887 44608
" />
<path d="M9732 34362
L11634 43058
" />
</g>
<g style="fill:#C2C200; fill-opacity:0.0; 
stroke:#C2C200; stroke-width:19.685; stroke-opacity:1; 
stroke-linecap:round; stroke-linejoin:round;">
<path d="M9687.23 33942.8 A1968.59 1968.59 0.0 0 0 9732.42 34362.2 " />
</g>
<g style="fill:#C2C200; fill-opacity:0.0; 
stroke:#C2C200; stroke-width:39.3701; stroke-opacity:1; 
stroke-linecap:round; stroke-linejoin:round;">
<path d="M9726.76 26461 A1968.66 1968.66 0.0 0 0 9687.23 26853.5 " />
<path d="M14942.5 8702.76 A1968.55 1968.55 0.0 0 0 13013.4 10278.8 " />
<path d="M113048 10279.8 A1968.43 1968.43 0.0 0 0 111120 8702.76 " />
<path d="M116374 26853.1 A1968.51 1968.51 0.0 0 0 116334 26460.7 " />
<path d="M116328 34365 A1968.54 1968.54 0.0 0 0 116373 33945.6 " />
<path d="M112503 44608.3 A1968.51 1968.51 0.0 0 0 114427 43059.1 " />
<path d="M97917.1 44608.3 A1968.44 1968.44 0.0 0 0 97524.7 44647.8 " />
<path d="M69042.1 50402.7 A1968.59 1968.59 0.0 0 0 69434.6 50363.1 " />
<path d="M60373.4 50362.4 A1968.59 1968.59 0.0 0 0 60765.9 50402.3 " />
<path d="M32279.8 44647.6 A1968.5 1968.5 0.0 0 0 31887.4 44608.3 " />
<path d="M11634.5 43058.2 A1968.62 1968.62 0.0 0 0 13557.3 44608.3 " />
<circle cx="60863.7" cy="10179.1" r="413.386" /> 
<circle cx="68947.1" cy="10179.1" r="413.386" /> 
<circle cx="90315.9" cy="44607.9" r="413.386" /> 
<circle cx="37621.4" cy="44227.6" r="413.386" /> 
<circle cx="68947" cy="48955.4" r="413.386" /> 
<circle cx="60863.6" cy="48955.4" r="413.386" /> 
<circle cx="112934" cy="43131.9" r="413.386" /> 
<circle cx="13203.7" cy="43033.5" r="413.386" /> 
<circle cx="14510" cy="10179.1" r="413.386" /> 
<circle cx="111551" cy="10179.1" r="413.386" /> 
<path d="M54527 37490
L55626 32088
" />
<path d="M66835 33583
L67934 38985
" />
<path d="M62975 33583
L57574 32485
" />
<path d="M50225 30989
L49126 36390
" />
<path d="M56475 37886
L61876 38985
" />
<path d="M48276 30593
L42875 29494
" />
<path d="M80685 36390
L79586 30989
" />
<path d="M47178 35994
L48276 30593
" />
<path d="M61876 38985
L62975 33583
" />
<path d="M107973 35147
L107973 40660
" />
<path d="M41776 34895
L47178 35994
" />
<path d="M73335 37886
L72237 32485
" />
<path d="M79586 30989
L74184 32088
" />
<path d="M72237 32485
L66835 33583
" />
<path d="M102462 40660
L102462 35147
" />
<path d="M102462 35147
L107973 35147
" />
<path d="M75284 37490
L80685 36390
" />
<path d="M74184 32088
L75284 37490
" />
<path d="M57574 32485
L56475 37886
" />
<path d="M49126 36390
L54527 37490
" />
<path d="M107973 40660
L102462 40660
" />
<path d="M67934 38985
L73335 37886
" />
<path d="M55626 32088
L50225 30989
" />
<path d="M73032 17015
L74130 22416
" />
<path d="M30161 20147
L30161 25660
" />
<path d="M59355 23164
L60454 17763
" />
<path d="M96464 19902
L91063 21001
" />
<path d="M66781 23912
L72182 22813
" />
<path d="M53953 22065
L59355 23164
" />
<path d="M21723 25660
L16212 25660
" />
<path d="M90213 26798
L89115 21397
" />
<path d="M71083 17412
L65682 18511
" />
<path d="M102462 25660
L102462 20147
" />
<path d="M92162 26402
L97563 25303
" />
<path d="M37649 26402
L38748 21001
" />
<path d="M16212 20147
L21723 20147
" />
<path d="M107973 25660
L102462 25660
" />
<path d="M40695 21397
L39597 26798
" />
<path d="M72182 22813
L71083 17412
" />
<path d="M102462 20147
L107973 20147
" />
<path d="M16212 25660
L16212 20147
" />
<path d="M46097 22496
L40695 21397
" />
<path d="M21723 20147
L21723 25660
" />
<path d="M97563 25303
L96464 19902
" />
<path d="M91063 21001
L92162 26402
" />
<path d="M83713 22496
L84813 27897
" />
<path d="M38748 21001
L33346 19902
" />
<path d="M60454 17763
L55052 16664
" />
<path d="M30161 25660
L24649 25660
" />
<path d="M33346 19902
L32248 25303
" />
<path d="M55052 16664
L53953 22065
" />
<path d="M74130 22416
L79532 21318
" />
<path d="M32248 25303
L37649 26402
" />
<path d="M89115 21397
L83713 22496
" />
<path d="M86881 19822
L85782 14421
" />
<path d="M47703 15169
L46604 20570
" />
<path d="M24649 20147
L30161 20147
" />
<path d="M65682 18511
L66781 23912
" />
<path d="M80381 15521
L81480 20921
" />
<path d="M46604 20570
L52006 21669
" />
<path d="M107973 20147
L107973 25660
" />
<path d="M84813 27897
L90213 26798
" />
<path d="M24649 25660
L24649 20147
" />
<path d="M44998 27897
L46097 22496
" />
<path d="M81480 20921
L86881 19822
" />
<path d="M53104 16268
L47703 15169
" />
<path d="M52006 21669
L53104 16268
" />
<path d="M78432 15917
L73032 17015
" />
<path d="M79532 21318
L78432 15917
" />
<path d="M103868 12647
L109380 12647
" />
<path d="M16681 18160
L16681 12647
" />
<path d="M22192 12647
L22192 18160
" />
<path d="M37307 18679
L38405 13277
" />
<path d="M87730 14025
L88830 19426
" />
<path d="M44656 20173
L45754 14773
" />
<path d="M109380 12647
L109380 18160
" />
<path d="M38405 13277
L33004 12178
" />
<path d="M24181 12647
L29692 12647
" />
<path d="M16681 12647
L22192 12647
" />
<path d="M31905 17580
L37307 18679
" />
<path d="M94230 18327
L93131 12926
" />
<path d="M33004 12178
L31905 17580
" />
<path d="M24181 18160
L24181 12647
" />
<path d="M29692 12647
L29692 18160
" />
<path d="M85782 14421
L80381 15521
" />
<path d="M96368 17784
L96368 12272
" />
<path d="M101880 12272
L101880 17784
" />
<path d="M96368 12272
L101880 12272
" />
<path d="M45754 14773
L40354 13673
" />
<path d="M22192 18160
L16681 18160
" />
<path d="M109380 18160
L103868 18160
" />
<path d="M103868 18160
L103868 12647
" />
<path d="M40354 13673
L39255 19075
" />
<path d="M29692 18160
L24181 18160
" />
<path d="M93131 12926
L87730 14025
" />
<path d="M39255 19075
L44656 20173
" />
<path d="M88830 19426
L94230 18327
" />
<path d="M101880 17784
L96368 17784
" />
<path d="M58217 39879
L58122 40342
" />
<path d="M59569 43155
L60061 40737
" />
<path d="M50167 42367
L50756 42487
" />
<path d="M55787 45400
L56156 43586
" />
<path d="M59395 40601
L59490 40138
" />
<path d="M56491 44952
L59095 45482
" />
<path d="M59490 40138
L58217 39879
" />
<path d="M60061 40737
L59395 40601
" />
<path d="M59887 43220
L59569 43155
" />
<path d="M59667 44301
L59887 43220
" />
<path d="M59095 45482
L59349 44236
" />
<path d="M50756 42487
L50387 44301
" />
<path d="M49913 43614
L50167 42367
" />
<path d="M59349 44236
L59667 44301
" />
<path d="M56745 43706
L56491 44952
" />
<path d="M56156 43586
L56745 43706
" />
<path d="M56887 39998
L51485 38900
" />
<path d="M56518 41812
L56887 39998
" />
<path d="M57106 41931
L56518 41812
" />
<path d="M50387 44301
L55787 45400
" />
<path d="M57457 40207
L57106 41931
" />
<path d="M47309 43084
L49913 43614
" />
<path d="M58122 40342
L57457 40207
" />
<path d="M34427 33400
L39828 34499
" />
<path d="M59696 30887
L60796 25486
" />
<path d="M35526 27999
L34427 33400
" />
<path d="M26759 33160
L26759 27647
" />
<path d="M21958 33160
L16447 33160
" />
<path d="M81534 30593
L82633 35994
" />
<path d="M55394 24387
L54296 29789
" />
<path d="M103052 33160
L97541 33160
" />
<path d="M88034 34895
L86935 29494
" />
<path d="M75515 29789
L74416 24387
" />
<path d="M26759 27647
L32271 27647
" />
<path d="M111490 27647
L111490 33160
" />
<path d="M69015 25486
L70114 30887
" />
<path d="M60796 25486
L55394 24387
" />
<path d="M54296 29789
L59696 30887
" />
<path d="M82633 35994
L88034 34895
" />
<path d="M40927 29098
L35526 27999
" />
<path d="M111490 33160
L105978 33160
" />
<path d="M86935 29494
L81534 30593
" />
<path d="M42875 29494
L41776 34895
" />
<path d="M97541 27647
L103052 27647
" />
<path d="M89982 34499
L95384 33400
" />
<path d="M88883 29098
L89982 34499
" />
<path d="M32271 33160
L26759 33160
" />
<path d="M21958 27647
L21958 33160
" />
<path d="M39828 34499
L40927 29098
" />
<path d="M105978 33160
L105978 27647
" />
<path d="M105978 27647
L111490 27647
" />
<path d="M97541 33160
L97541 27647
" />
<path d="M16447 33160
L16447 27647
" />
<path d="M16447 27647
L21958 27647
" />
<path d="M94285 27999
L88883 29098
" />
<path d="M39597 26798
L44998 27897
" />
<path d="M81765 22892
L76364 23991
" />
<path d="M82864 28293
L81765 22892
" />
<path d="M77463 29392
L82864 28293
" />
<path d="M48045 22892
L46946 28293
" />
<path d="M76364 23991
L77463 29392
" />
<path d="M103052 27647
L103052 33160
" />
<path d="M53446 23991
L48045 22892
" />
<path d="M52347 29392
L53446 23991
" />
<path d="M46946 28293
L52347 29392
" />
<path d="M74416 24387
L69015 25486
" />
<path d="M32271 27647
L32271 33160
" />
<path d="M95384 33400
L94285 27999
" />
<path d="M70114 30887
L75515 29789
" />
<path d="M21723 40660
L16212 40660
" />
<path d="M85047 43157
L90448 42058
" />
<path d="M50879 38869
L50213 38733
" />
<path d="M38444 41871
L43845 42970
" />
<path d="M39542 36470
L38444 41871
" />
<path d="M50308 38270
L49035 38011
" />
<path d="M21723 35147
L21723 40660
" />
<path d="M16212 35147
L21723 35147
" />
<path d="M44943 37568
L39542 36470
" />
<path d="M43845 42970
L44943 37568
" />
<path d="M90448 42058
L89349 36657
" />
<path d="M83948 37755
L85047 43157
" />
<path d="M50528 40593
L50879 38869
" />
<path d="M50213 38733
L50308 38270
" />
<path d="M51116 40713
L50528 40593
" />
<path d="M51485 38900
L51116 40713
" />
<path d="M24649 40660
L24649 35147
" />
<path d="M30161 40660
L24649 40660
" />
<path d="M24649 35147
L30161 35147
" />
<path d="M89349 36657
L83948 37755
" />
<path d="M30161 35147
L30161 40660
" />
<path d="M49035 38011
L48940 38474
" />
<path d="M16212 40660
L16212 35147
" />
<path d="M81647 41960
L81427 40880
" />
<path d="M78506 44487
L78137 42675
" />
<path d="M78725 42555
L78978 43801
" />
<path d="M81582 43271
L81328 42025
" />
<path d="M78978 43801
L81582 43271
" />
<path d="M73104 45586
L78506 44487
" />
<path d="M72735 43773
L73104 45586
" />
<path d="M69796 45669
L72400 45139
" />
<path d="M81328 42025
L81647 41960
" />
<path d="M72146 43893
L72735 43773
" />
<path d="M48274 38339
L47782 40757
" />
<path d="M81427 40880
L81109 40944
" />
<path d="M78137 42675
L78725 42555
" />
<path d="M47563 41838
L47309 43084
" />
<path d="M47245 41773
L47563 41838
" />
<path d="M47465 40693
L47245 41773
" />
<path d="M72400 45139
L72146 43893
" />
<path d="M47782 40757
L47465 40693
" />
<path d="M48940 38474
L48274 38339
" />
<path d="M79857 38198
L78584 38457
" />
<path d="M79952 38661
L79857 38198
" />
<path d="M80617 38526
L79952 38661
" />
<path d="M81109 40944
L80617 38526
" />
<path d="M70675 40066
L69402 40325
" />
<path d="M71435 40394
L70770 40529
" />
<path d="M72374 41999
L71786 42118
" />
<path d="M69543 44423
L69796 45669
" />
<path d="M69224 44487
L69543 44423
" />
<path d="M71786 42118
L71435 40394
" />
<path d="M77775 40899
L77406 39086
" />
<path d="M78678 38920
L78013 39055
" />
<path d="M69323 43342
L69005 43407
" />
<path d="M69496 40788
L68831 40924
" />
<path d="M68831 40924
L69323 43342
" />
<path d="M78584 38457
L78678 38920
" />
<path d="M72006 40185
L72374 41999
" />
<path d="M78013 39055
L78363 40780
" />
<path d="M70770 40529
L70675 40066
" />
<path d="M78363 40780
L77775 40899
" />
<path d="M77406 39086
L72006 40185
" />
<path d="M69402 40325
L69496 40788
" />
<path d="M69005 43407
L69224 44487
" />
<g >
</g>
</g> 
</svg>
