  0
SECTION
  2
HEADER
  9
$ACADVER
  1
AC1009
  9
$EXTMIN
 10
0.0
 20
0.0
 30
0.0
  9
$EXTMAX
 10
1000.0
 20
1000.0
 30
0.0
  9
$FILLMODE
 70
 0
  9
$SPLFRAME
 70
 1
  0
ENDSEC
  0
SECTION
  2
TABLES
  0
TABLE
  2
LAYER
 70
1
  0
LAYER
  2
0
 70
     0
 62
     7
  6
CONTINUOUS
  0
ENDTAB
  0
ENDSEC
  0
SECTION
  2
ENTITIES
  0
LINE
  8
0
 62
     0
 10
0.0937066
 20
110.218
 30
0.0
 11
285.25
 21
110.218
 31
0.0
  0
LINE
  8
0
 62
     0
 10
285.25
 20
110.218
 30
0.0
 11
285.25
 21
0.100597
 31
0.0
  0
LINE
  8
0
 62
     0
 10
285.25
 20
0.100597
 30
0.0
 11
0.0937066
 21
0.100597
 31
0.0
  0
LINE
  8
0
 62
     0
 10
0.0937066
 20
0.100597
 30
0.0
 11
0.0937066
 21
110.218
 31
0.0
  0
LINE
  8
0
 62
     0
 10
196.763
 20
23.0876
 30
0.0
 11
197.002
 21
21.9108
 31
0.0
  0
LINE
  8
0
 62
     0
 10
197.002
 20
21.9108
 30
0.0
 11
195.312
 21
21.5677
 31
0.0
  0
LINE
  8
0
 62
     0
 10
195.312
 20
21.5677
 30
0.0
 11
196.202
 21
17.1869
 31
0.0
  0
LINE
  8
0
 62
     0
 10
196.202
 20
17.1869
 30
0.0
 11
194.707
 21
16.8837
 31
0.0
  0
LINE
  8
0
 62
     0
 10
194.707
 20
16.8837
 30
0.0
 11
193.77
 21
21.4891
 31
0.0
  0
LINE
  8
0
 62
     0
 10
193.77
 20
21.4891
 30
0.0
 11
180.053
 21
18.6972
 31
0.0
  0
LINE
  8
0
 62
     0
 10
180.053
 20
18.6972
 30
0.0
 11
180.99
 21
14.0918
 31
0.0
  0
LINE
  8
0
 62
     0
 10
180.99
 20
14.0918
 30
0.0
 11
179.495
 21
13.7886
 31
0.0
  0
LINE
  8
0
 62
     0
 10
179.495
 20
13.7886
 30
0.0
 11
178.603
 21
18.1681
 31
0.0
  0
LINE
  8
0
 62
     0
 10
178.603
 20
18.1681
 30
0.0
 11
176.914
 21
17.8235
 31
0.0
  0
LINE
  8
0
 62
     0
 10
176.914
 20
17.8235
 30
0.0
 11
176.674
 21
19.0004
 31
0.0
  0
LINE
  8
0
 62
     0
 10
176.674
 20
19.0004
 30
0.0
 11
173.441
 21
18.3417
 31
0.0
  0
LINE
  8
0
 62
     0
 10
173.441
 20
18.3417
 30
0.0
 11
173.68
 21
17.1662
 31
0.0
  0
LINE
  8
0
 62
     0
 10
173.68
 20
17.1662
 30
0.0
 11
171.99
 21
16.8217
 31
0.0
  0
LINE
  8
0
 62
     0
 10
171.99
 20
16.8217
 30
0.0
 11
173.24
 21
10.6784
 31
0.0
  0
LINE
  8
0
 62
     0
 10
173.24
 20
10.6784
 30
0.0
 11
172.431
 21
10.5144
 31
0.0
  0
LINE
  8
0
 62
     0
 10
172.431
 20
10.5144
 30
0.0
 11
172.989
 21
7.77074
 31
0.0
  0
LINE
  8
0
 62
     0
 10
172.989
 20
7.77074
 30
0.0
 11
173.798
 21
7.93475
 31
0.0
  0
LINE
  8
0
 62
     0
 10
173.798
 20
7.93475
 30
0.0
 11
174.442
 21
4.76938
 31
0.0
  0
LINE
  8
0
 62
     0
 10
174.442
 20
4.76938
 30
0.0
 11
181.056
 21
6.11572
 31
0.0
  0
LINE
  8
0
 62
     0
 10
181.056
 20
6.11572
 30
0.0
 11
180.411
 21
9.27971
 31
0.0
  0
LINE
  8
0
 62
     0
 10
180.411
 20
9.27971
 30
0.0
 11
181.907
 21
9.58427
 31
0.0
  0
LINE
  8
0
 62
     0
 10
181.907
 20
9.58427
 30
0.0
 11
182.844
 21
4.97886
 31
0.0
  0
LINE
  8
0
 62
     0
 10
182.844
 20
4.97886
 30
0.0
 11
196.564
 21
7.77074
 31
0.0
  0
LINE
  8
0
 62
     0
 10
196.564
 20
7.77074
 30
0.0
 11
195.626
 21
12.3748
 31
0.0
  0
LINE
  8
0
 62
     0
 10
195.626
 20
12.3748
 30
0.0
 11
197.12
 21
12.6793
 31
0.0
  0
LINE
  8
0
 62
     0
 10
197.12
 20
12.6793
 30
0.0
 11
197.764
 21
9.51399
 31
0.0
  0
LINE
  8
0
 62
     0
 10
197.764
 20
9.51399
 30
0.0
 11
204.378
 21
10.8603
 31
0.0
  0
LINE
  8
0
 62
     0
 10
204.378
 20
10.8603
 30
0.0
 11
203.733
 21
14.0257
 31
0.0
  0
LINE
  8
0
 62
     0
 10
203.733
 20
14.0257
 30
0.0
 11
204.542
 21
14.1897
 31
0.0
  0
LINE
  8
0
 62
     0
 10
204.542
 20
14.1897
 30
0.0
 11
203.984
 21
16.9333
 31
0.0
  0
LINE
  8
0
 62
     0
 10
203.984
 20
16.9333
 30
0.0
 11
203.175
 21
16.7694
 31
0.0
  0
LINE
  8
0
 62
     0
 10
203.175
 20
16.7694
 30
0.0
 11
201.925
 21
22.9126
 31
0.0
  0
LINE
  8
0
 62
     0
 10
201.925
 20
22.9126
 30
0.0
 11
200.236
 21
22.5695
 31
0.0
  0
LINE
  8
0
 62
     0
 10
200.236
 20
22.5695
 30
0.0
 11
199.996
 21
23.745
 31
0.0
  0
LINE
  8
0
 62
     0
 10
199.996
 20
23.745
 30
0.0
 11
196.763
 21
23.0876
 31
0.0
  0
LINE
  8
0
 62
     0
 10
121.467
 20
23.0435
 30
0.0
 11
119.776
 21
23.3881
 31
0.0
  0
LINE
  8
0
 62
     0
 10
119.776
 20
23.3881
 30
0.0
 11
118.526
 21
17.2448
 31
0.0
  0
LINE
  8
0
 62
     0
 10
118.526
 20
17.2448
 30
0.0
 11
117.719
 21
17.4088
 31
0.0
  0
LINE
  8
0
 62
     0
 10
117.719
 20
17.4088
 30
0.0
 11
117.161
 21
14.6637
 31
0.0
  0
LINE
  8
0
 62
     0
 10
117.161
 20
14.6637
 30
0.0
 11
117.968
 21
14.4997
 31
0.0
  0
LINE
  8
0
 62
     0
 10
117.968
 20
14.4997
 30
0.0
 11
117.325
 21
11.3357
 31
0.0
  0
LINE
  8
0
 62
     0
 10
117.325
 20
11.3357
 30
0.0
 11
123.939
 21
9.9894
 31
0.0
  0
LINE
  8
0
 62
     0
 10
123.939
 20
9.9894
 30
0.0
 11
124.584
 21
13.1548
 31
0.0
  0
LINE
  8
0
 62
     0
 10
124.584
 20
13.1548
 30
0.0
 11
126.078
 21
12.8502
 31
0.0
  0
LINE
  8
0
 62
     0
 10
126.078
 20
12.8502
 30
0.0
 11
125.141
 21
8.2448
 31
0.0
  0
LINE
  8
0
 62
     0
 10
125.141
 20
8.2448
 30
0.0
 11
138.859
 21
5.45289
 31
0.0
  0
LINE
  8
0
 62
     0
 10
138.859
 20
5.45289
 30
0.0
 11
139.796
 21
10.0597
 31
0.0
  0
LINE
  8
0
 62
     0
 10
139.796
 20
10.0597
 30
0.0
 11
141.29
 21
9.75512
 31
0.0
  0
LINE
  8
0
 62
     0
 10
141.29
 20
9.75512
 30
0.0
 11
140.647
 21
6.58978
 31
0.0
  0
LINE
  8
0
 62
     0
 10
140.647
 20
6.58978
 30
0.0
 11
147.261
 21
5.24482
 31
0.0
  0
LINE
  8
0
 62
     0
 10
147.261
 20
5.24482
 30
0.0
 11
147.906
 21
8.40878
 31
0.0
  0
LINE
  8
0
 62
     0
 10
147.906
 20
8.40878
 30
0.0
 11
148.714
 21
8.2448
 31
0.0
  0
LINE
  8
0
 62
     0
 10
148.714
 20
8.2448
 30
0.0
 11
149.272
 21
10.9885
 31
0.0
  0
LINE
  8
0
 62
     0
 10
149.272
 20
10.9885
 30
0.0
 11
148.464
 21
11.1538
 31
0.0
  0
LINE
  8
0
 62
     0
 10
148.464
 20
11.1538
 30
0.0
 11
149.714
 21
17.2972
 31
0.0
  0
LINE
  8
0
 62
     0
 10
149.714
 20
17.2972
 30
0.0
 11
148.023
 21
17.6416
 31
0.0
  0
LINE
  8
0
 62
     0
 10
148.023
 20
17.6416
 30
0.0
 11
148.263
 21
18.8171
 31
0.0
  0
LINE
  8
0
 62
     0
 10
148.263
 20
18.8171
 30
0.0
 11
145.029
 21
19.4758
 31
0.0
  0
LINE
  8
0
 62
     0
 10
145.029
 20
19.4758
 30
0.0
 11
144.789
 21
18.299
 31
0.0
  0
LINE
  8
0
 62
     0
 10
144.789
 20
18.299
 30
0.0
 11
143.1
 21
18.6435
 31
0.0
  0
LINE
  8
0
 62
     0
 10
143.1
 20
18.6435
 30
0.0
 11
142.208
 21
14.2627
 31
0.0
  0
LINE
  8
0
 62
     0
 10
142.208
 20
14.2627
 30
0.0
 11
140.714
 21
14.5659
 31
0.0
  0
LINE
  8
0
 62
     0
 10
140.714
 20
14.5659
 30
0.0
 11
141.651
 21
19.1727
 31
0.0
  0
LINE
  8
0
 62
     0
 10
141.651
 20
19.1727
 30
0.0
 11
127.932
 21
21.9632
 31
0.0
  0
LINE
  8
0
 62
     0
 10
127.932
 20
21.9632
 30
0.0
 11
126.994
 21
17.3578
 31
0.0
  0
LINE
  8
0
 62
     0
 10
126.994
 20
17.3578
 30
0.0
 11
125.501
 21
17.6623
 31
0.0
  0
LINE
  8
0
 62
     0
 10
125.501
 20
17.6623
 30
0.0
 11
126.392
 21
22.0417
 31
0.0
  0
LINE
  8
0
 62
     0
 10
126.392
 20
22.0417
 30
0.0
 11
124.701
 21
22.3862
 31
0.0
  0
LINE
  8
0
 62
     0
 10
124.701
 20
22.3862
 30
0.0
 11
124.941
 21
23.5617
 31
0.0
  0
LINE
  8
0
 62
     0
 10
124.941
 20
23.5617
 30
0.0
 11
121.707
 21
24.2204
 31
0.0
  0
LINE
  8
0
 62
     0
 10
121.707
 20
24.2204
 30
0.0
 11
121.467
 21
23.0435
 31
0.0
  0
LINE
  8
0
 62
     0
 10
210.386
 20
24.8695
 30
0.0
 11
213.178
 21
11.1497
 31
0.0
  0
LINE
  8
0
 62
     0
 10
213.178
 20
11.1497
 30
0.0
 11
226.897
 21
13.9416
 31
0.0
  0
LINE
  8
0
 62
     0
 10
226.897
 20
13.9416
 30
0.0
 11
224.106
 21
27.66
 31
0.0
  0
LINE
  8
0
 62
     0
 10
224.106
 20
27.66
 30
0.0
 11
210.386
 21
24.8695
 31
0.0
  0
LINE
  8
0
 62
     0
 10
94.8062
 20
14.4157
 30
0.0
 11
108.525
 21
11.6251
 31
0.0
  0
LINE
  8
0
 62
     0
 10
108.525
 20
11.6251
 30
0.0
 11
111.315
 21
25.3449
 31
0.0
  0
LINE
  8
0
 62
     0
 10
111.315
 20
25.3449
 30
0.0
 11
97.5967
 21
28.1354
 31
0.0
  0
LINE
  8
0
 62
     0
 10
97.5967
 20
28.1354
 30
0.0
 11
94.8062
 21
14.4157
 31
0.0
  0
LINE
  8
0
 62
     0
 10
38.3371
 20
31.4937
 30
0.0
 11
52.3363
 21
31.4937
 31
0.0
  0
LINE
  8
0
 62
     0
 10
52.3363
 20
31.4937
 30
0.0
 11
52.3363
 21
17.4928
 31
0.0
  0
LINE
  8
0
 62
     0
 10
52.3363
 20
17.4928
 30
0.0
 11
38.3371
 21
17.4928
 31
0.0
  0
LINE
  8
0
 62
     0
 10
38.3371
 20
17.4928
 30
0.0
 11
38.3371
 21
31.4937
 31
0.0
  0
LINE
  8
0
 62
     0
 10
59.7683
 20
31.4937
 30
0.0
 11
73.769
 21
31.4937
 31
0.0
  0
LINE
  8
0
 62
     0
 10
73.769
 20
31.4937
 30
0.0
 11
73.769
 21
17.4928
 31
0.0
  0
LINE
  8
0
 62
     0
 10
73.769
 20
17.4928
 30
0.0
 11
59.7683
 21
17.4928
 31
0.0
  0
LINE
  8
0
 62
     0
 10
59.7683
 20
17.4928
 30
0.0
 11
59.7683
 21
31.4937
 31
0.0
  0
LINE
  8
0
 62
     0
 10
257.412
 20
31.4937
 30
0.0
 11
271.411
 21
31.4937
 31
0.0
  0
LINE
  8
0
 62
     0
 10
271.411
 20
31.4937
 30
0.0
 11
271.411
 21
17.4928
 31
0.0
  0
LINE
  8
0
 62
     0
 10
271.411
 20
17.4928
 30
0.0
 11
257.412
 21
17.4928
 31
0.0
  0
LINE
  8
0
 62
     0
 10
257.412
 20
17.4928
 30
0.0
 11
257.412
 21
31.4937
 31
0.0
  0
LINE
  8
0
 62
     0
 10
140.605
 20
24.5387
 30
0.0
 11
154.325
 21
21.7468
 31
0.0
  0
LINE
  8
0
 62
     0
 10
154.325
 20
21.7468
 30
0.0
 11
157.116
 21
35.4665
 31
0.0
  0
LINE
  8
0
 62
     0
 10
157.116
 20
35.4665
 30
0.0
 11
143.397
 21
38.257
 31
0.0
  0
LINE
  8
0
 62
     0
 10
143.397
 20
38.257
 30
0.0
 11
140.605
 21
24.5387
 31
0.0
  0
LINE
  8
0
 62
     0
 10
166.92
 20
35.4665
 30
0.0
 11
169.712
 21
21.7468
 31
0.0
  0
LINE
  8
0
 62
     0
 10
169.712
 20
21.7468
 30
0.0
 11
183.431
 21
24.5387
 31
0.0
  0
LINE
  8
0
 62
     0
 10
183.431
 20
24.5387
 30
0.0
 11
180.64
 21
38.257
 31
0.0
  0
LINE
  8
0
 62
     0
 10
180.64
 20
38.257
 30
0.0
 11
166.92
 21
35.4665
 31
0.0
  0
LINE
  8
0
 62
     0
 10
121.938
 20
28.3366
 30
0.0
 11
135.657
 21
25.5447
 31
0.0
  0
LINE
  8
0
 62
     0
 10
135.657
 20
25.5447
 30
0.0
 11
138.449
 21
39.2645
 31
0.0
  0
LINE
  8
0
 62
     0
 10
138.449
 20
39.2645
 30
0.0
 11
124.73
 21
42.055
 31
0.0
  0
LINE
  8
0
 62
     0
 10
124.73
 20
42.055
 30
0.0
 11
121.938
 21
28.3366
 31
0.0
  0
LINE
  8
0
 62
     0
 10
185.587
 20
39.2645
 30
0.0
 11
188.379
 21
25.5447
 31
0.0
  0
LINE
  8
0
 62
     0
 10
188.379
 20
25.5447
 30
0.0
 11
202.098
 21
28.3366
 31
0.0
  0
LINE
  8
0
 62
     0
 10
202.098
 20
28.3366
 30
0.0
 11
199.307
 21
42.055
 31
0.0
  0
LINE
  8
0
 62
     0
 10
199.307
 20
42.055
 30
0.0
 11
185.587
 21
39.2645
 31
0.0
  0
LINE
  8
0
 62
     0
 10
103.27
 20
32.1359
 30
0.0
 11
116.99
 21
29.3426
 31
0.0
  0
LINE
  8
0
 62
     0
 10
116.99
 20
29.3426
 30
0.0
 11
119.78
 21
43.0622
 31
0.0
  0
LINE
  8
0
 62
     0
 10
119.78
 20
43.0622
 30
0.0
 11
106.062
 21
45.853
 31
0.0
  0
LINE
  8
0
 62
     0
 10
106.062
 20
45.853
 30
0.0
 11
103.27
 21
32.1359
 31
0.0
  0
LINE
  8
0
 62
     0
 10
204.256
 20
43.0622
 30
0.0
 11
207.046
 21
29.3426
 31
0.0
  0
LINE
  8
0
 62
     0
 10
207.046
 20
29.3426
 30
0.0
 11
220.766
 21
32.1359
 31
0.0
  0
LINE
  8
0
 62
     0
 10
220.766
 20
32.1359
 30
0.0
 11
217.975
 21
45.853
 31
0.0
  0
LINE
  8
0
 62
     0
 10
217.975
 20
45.853
 30
0.0
 11
204.256
 21
43.0622
 31
0.0
  0
LINE
  8
0
 62
     0
 10
84.6032
 20
35.9322
 30
0.0
 11
98.3216
 21
33.1418
 31
0.0
  0
LINE
  8
0
 62
     0
 10
98.3216
 20
33.1418
 30
0.0
 11
101.114
 21
46.8602
 31
0.0
  0
LINE
  8
0
 62
     0
 10
101.114
 20
46.8602
 30
0.0
 11
87.395
 21
49.6507
 31
0.0
  0
LINE
  8
0
 62
     0
 10
87.395
 20
49.6507
 30
0.0
 11
84.6032
 21
35.9322
 31
0.0
  0
LINE
  8
0
 62
     0
 10
222.922
 20
46.8602
 30
0.0
 11
225.714
 21
33.1418
 31
0.0
  0
LINE
  8
0
 62
     0
 10
225.714
 20
33.1418
 30
0.0
 11
239.434
 21
35.9322
 31
0.0
  0
LINE
  8
0
 62
     0
 10
239.434
 20
35.9322
 30
0.0
 11
236.642
 21
49.6507
 31
0.0
  0
LINE
  8
0
 62
     0
 10
236.642
 20
49.6507
 30
0.0
 11
222.922
 21
46.8602
 31
0.0
  0
LINE
  8
0
 62
     0
 10
38.9336
 20
50.5435
 30
0.0
 11
52.9332
 21
50.5435
 31
0.0
  0
LINE
  8
0
 62
     0
 10
52.9332
 20
50.5435
 30
0.0
 11
52.9332
 21
36.5428
 31
0.0
  0
LINE
  8
0
 62
     0
 10
52.9332
 20
36.5428
 30
0.0
 11
38.9336
 21
36.5428
 31
0.0
  0
LINE
  8
0
 62
     0
 10
38.9336
 20
36.5428
 30
0.0
 11
38.9336
 21
50.5435
 31
0.0
  0
LINE
  8
0
 62
     0
 10
65.126
 20
50.5435
 30
0.0
 11
79.127
 21
50.5435
 31
0.0
  0
LINE
  8
0
 62
     0
 10
79.127
 20
50.5435
 30
0.0
 11
79.127
 21
36.5428
 31
0.0
  0
LINE
  8
0
 62
     0
 10
79.127
 20
36.5428
 30
0.0
 11
65.126
 21
36.5428
 31
0.0
  0
LINE
  8
0
 62
     0
 10
65.126
 20
36.5428
 30
0.0
 11
65.126
 21
50.5435
 31
0.0
  0
LINE
  8
0
 62
     0
 10
244.912
 20
50.5435
 30
0.0
 11
258.911
 21
50.5435
 31
0.0
  0
LINE
  8
0
 62
     0
 10
258.911
 20
50.5435
 30
0.0
 11
258.911
 21
36.5428
 31
0.0
  0
LINE
  8
0
 62
     0
 10
258.911
 20
36.5428
 30
0.0
 11
244.912
 21
36.5428
 31
0.0
  0
LINE
  8
0
 62
     0
 10
244.912
 20
36.5428
 30
0.0
 11
244.912
 21
50.5435
 31
0.0
  0
LINE
  8
0
 62
     0
 10
266.343
 20
50.5435
 30
0.0
 11
280.343
 21
50.5435
 31
0.0
  0
LINE
  8
0
 62
     0
 10
280.343
 20
50.5435
 30
0.0
 11
280.343
 21
36.5428
 31
0.0
  0
LINE
  8
0
 62
     0
 10
280.343
 20
36.5428
 30
0.0
 11
266.343
 21
36.5428
 31
0.0
  0
LINE
  8
0
 62
     0
 10
266.343
 20
36.5428
 30
0.0
 11
266.343
 21
50.5435
 31
0.0
  0
LINE
  8
0
 62
     0
 10
135.07
 20
45.1044
 30
0.0
 11
148.788
 21
42.3139
 31
0.0
  0
LINE
  8
0
 62
     0
 10
148.788
 20
42.3139
 30
0.0
 11
151.58
 21
56.0338
 31
0.0
  0
LINE
  8
0
 62
     0
 10
151.58
 20
56.0338
 30
0.0
 11
137.86
 21
58.8243
 31
0.0
  0
LINE
  8
0
 62
     0
 10
137.86
 20
58.8243
 30
0.0
 11
135.07
 21
45.1044
 31
0.0
  0
LINE
  8
0
 62
     0
 10
172.457
 20
56.0338
 30
0.0
 11
175.248
 21
42.3139
 31
0.0
  0
LINE
  8
0
 62
     0
 10
175.248
 20
42.3139
 30
0.0
 11
188.966
 21
45.1044
 31
0.0
  0
LINE
  8
0
 62
     0
 10
188.966
 20
45.1044
 30
0.0
 11
186.176
 21
58.8243
 31
0.0
  0
LINE
  8
0
 62
     0
 10
186.176
 20
58.8243
 30
0.0
 11
172.457
 21
56.0338
 31
0.0
  0
LINE
  8
0
 62
     0
 10
116.403
 20
48.9038
 30
0.0
 11
130.121
 21
46.1119
 31
0.0
  0
LINE
  8
0
 62
     0
 10
130.121
 20
46.1119
 30
0.0
 11
132.913
 21
59.8304
 31
0.0
  0
LINE
  8
0
 62
     0
 10
132.913
 20
59.8304
 30
0.0
 11
119.193
 21
62.6223
 31
0.0
  0
LINE
  8
0
 62
     0
 10
119.193
 20
62.6223
 30
0.0
 11
116.403
 21
48.9038
 31
0.0
  0
LINE
  8
0
 62
     0
 10
191.124
 20
59.8304
 30
0.0
 11
193.915
 21
46.1119
 31
0.0
  0
LINE
  8
0
 62
     0
 10
193.915
 20
46.1119
 30
0.0
 11
207.633
 21
48.9038
 31
0.0
  0
LINE
  8
0
 62
     0
 10
207.633
 20
48.9038
 30
0.0
 11
204.843
 21
62.6223
 31
0.0
  0
LINE
  8
0
 62
     0
 10
204.843
 20
62.6223
 30
0.0
 11
191.124
 21
59.8304
 31
0.0
  0
LINE
  8
0
 62
     0
 10
97.7346
 20
52.7018
 30
0.0
 11
111.454
 21
49.9099
 31
0.0
  0
LINE
  8
0
 62
     0
 10
111.454
 20
49.9099
 30
0.0
 11
114.245
 21
63.6281
 31
0.0
  0
LINE
  8
0
 62
     0
 10
114.245
 20
63.6281
 30
0.0
 11
100.525
 21
66.4199
 31
0.0
  0
LINE
  8
0
 62
     0
 10
100.525
 20
66.4199
 30
0.0
 11
97.7346
 21
52.7018
 31
0.0
  0
LINE
  8
0
 62
     0
 10
209.791
 20
63.6281
 30
0.0
 11
212.583
 21
49.9099
 31
0.0
  0
LINE
  8
0
 62
     0
 10
212.583
 20
49.9099
 30
0.0
 11
226.301
 21
52.7018
 31
0.0
  0
LINE
  8
0
 62
     0
 10
226.301
 20
52.7018
 30
0.0
 11
223.511
 21
66.4199
 31
0.0
  0
LINE
  8
0
 62
     0
 10
223.511
 20
66.4199
 30
0.0
 11
209.791
 21
63.6281
 31
0.0
  0
LINE
  8
0
 62
     0
 10
79.0677
 20
56.4995
 30
0.0
 11
92.7862
 21
53.7076
 31
0.0
  0
LINE
  8
0
 62
     0
 10
92.7862
 20
53.7076
 30
0.0
 11
95.5781
 21
67.4261
 31
0.0
  0
LINE
  8
0
 62
     0
 10
95.5781
 20
67.4261
 30
0.0
 11
81.8582
 21
70.2179
 31
0.0
  0
LINE
  8
0
 62
     0
 10
81.8582
 20
70.2179
 30
0.0
 11
79.0677
 21
56.4995
 31
0.0
  0
LINE
  8
0
 62
     0
 10
228.458
 20
67.4261
 30
0.0
 11
231.25
 21
53.7076
 31
0.0
  0
LINE
  8
0
 62
     0
 10
231.25
 20
53.7076
 30
0.0
 11
244.968
 21
56.4995
 31
0.0
  0
LINE
  8
0
 62
     0
 10
244.968
 20
56.4995
 30
0.0
 11
242.178
 21
70.2179
 31
0.0
  0
LINE
  8
0
 62
     0
 10
242.178
 20
70.2179
 30
0.0
 11
228.458
 21
67.4261
 31
0.0
  0
LINE
  8
0
 62
     0
 10
38.3371
 20
69.5935
 30
0.0
 11
52.3363
 21
69.5935
 31
0.0
  0
LINE
  8
0
 62
     0
 10
52.3363
 20
69.5935
 30
0.0
 11
52.3363
 21
55.5928
 31
0.0
  0
LINE
  8
0
 62
     0
 10
52.3363
 20
55.5928
 30
0.0
 11
38.3371
 21
55.5928
 31
0.0
  0
LINE
  8
0
 62
     0
 10
38.3371
 20
55.5928
 30
0.0
 11
38.3371
 21
69.5935
 31
0.0
  0
LINE
  8
0
 62
     0
 10
59.7683
 20
69.5935
 30
0.0
 11
73.769
 21
69.5935
 31
0.0
  0
LINE
  8
0
 62
     0
 10
73.769
 20
69.5935
 30
0.0
 11
73.769
 21
55.5928
 31
0.0
  0
LINE
  8
0
 62
     0
 10
73.769
 20
55.5928
 30
0.0
 11
59.7683
 21
55.5928
 31
0.0
  0
LINE
  8
0
 62
     0
 10
59.7683
 20
55.5928
 30
0.0
 11
59.7683
 21
69.5935
 31
0.0
  0
LINE
  8
0
 62
     0
 10
257.412
 20
69.5935
 30
0.0
 11
271.411
 21
69.5935
 31
0.0
  0
LINE
  8
0
 62
     0
 10
271.411
 20
69.5935
 30
0.0
 11
271.411
 21
55.5928
 31
0.0
  0
LINE
  8
0
 62
     0
 10
271.411
 20
55.5928
 30
0.0
 11
257.412
 21
55.5928
 31
0.0
  0
LINE
  8
0
 62
     0
 10
257.412
 20
55.5928
 30
0.0
 11
257.412
 21
69.5935
 31
0.0
  0
LINE
  8
0
 62
     0
 10
163.992
 20
73.7514
 30
0.0
 11
166.783
 21
60.0329
 31
0.0
  0
LINE
  8
0
 62
     0
 10
166.783
 20
60.0329
 30
0.0
 11
180.502
 21
62.8234
 31
0.0
  0
LINE
  8
0
 62
     0
 10
180.502
 20
62.8234
 30
0.0
 11
177.71
 21
76.5418
 31
0.0
  0
LINE
  8
0
 62
     0
 10
177.71
 20
76.5418
 30
0.0
 11
163.992
 21
73.7514
 31
0.0
  0
LINE
  8
0
 62
     0
 10
134.2
 20
64.7238
 30
0.0
 11
147.92
 21
61.9319
 31
0.0
  0
LINE
  8
0
 62
     0
 10
147.92
 20
61.9319
 30
0.0
 11
150.711
 21
75.65
 31
0.0
  0
LINE
  8
0
 62
     0
 10
150.711
 20
75.65
 30
0.0
 11
136.992
 21
78.4408
 31
0.0
  0
LINE
  8
0
 62
     0
 10
136.992
 20
78.4408
 30
0.0
 11
134.2
 21
64.7238
 31
0.0
  0
LINE
  8
0
 62
     0
 10
182.659
 20
77.549
 30
0.0
 11
185.45
 21
63.8309
 31
0.0
  0
LINE
  8
0
 62
     0
 10
185.45
 20
63.8309
 30
0.0
 11
199.169
 21
66.6214
 31
0.0
  0
LINE
  8
0
 62
     0
 10
199.169
 20
66.6214
 30
0.0
 11
196.377
 21
80.3395
 31
0.0
  0
LINE
  8
0
 62
     0
 10
196.377
 20
80.3395
 30
0.0
 11
182.659
 21
77.549
 31
0.0
  0
LINE
  8
0
 62
     0
 10
115.533
 20
68.52
 30
0.0
 11
129.253
 21
65.7296
 31
0.0
  0
LINE
  8
0
 62
     0
 10
129.253
 20
65.7296
 30
0.0
 11
132.044
 21
79.448
 31
0.0
  0
LINE
  8
0
 62
     0
 10
132.044
 20
79.448
 30
0.0
 11
118.325
 21
82.2385
 31
0.0
  0
LINE
  8
0
 62
     0
 10
118.325
 20
82.2385
 30
0.0
 11
115.533
 21
68.52
 31
0.0
  0
LINE
  8
0
 62
     0
 10
201.327
 20
81.3456
 30
0.0
 11
204.118
 21
67.6286
 31
0.0
  0
LINE
  8
0
 62
     0
 10
204.118
 20
67.6286
 30
0.0
 11
217.836
 21
70.419
 31
0.0
  0
LINE
  8
0
 62
     0
 10
217.836
 20
70.419
 30
0.0
 11
215.046
 21
84.1389
 31
0.0
  0
LINE
  8
0
 62
     0
 10
215.046
 20
84.1389
 30
0.0
 11
201.327
 21
81.3456
 31
0.0
  0
LINE
  8
0
 62
     0
 10
96.8664
 20
72.318
 30
0.0
 11
110.585
 21
69.5276
 31
0.0
  0
LINE
  8
0
 62
     0
 10
110.585
 20
69.5276
 30
0.0
 11
113.375
 21
83.2446
 31
0.0
  0
LINE
  8
0
 62
     0
 10
113.375
 20
83.2446
 30
0.0
 11
99.6569
 21
86.0379
 31
0.0
  0
LINE
  8
0
 62
     0
 10
99.6569
 20
86.0379
 30
0.0
 11
96.8664
 21
72.318
 31
0.0
  0
LINE
  8
0
 62
     0
 10
219.994
 20
85.1447
 30
0.0
 11
222.786
 21
71.4266
 31
0.0
  0
LINE
  8
0
 62
     0
 10
222.786
 20
71.4266
 30
0.0
 11
236.504
 21
74.217
 31
0.0
  0
LINE
  8
0
 62
     0
 10
236.504
 20
74.217
 30
0.0
 11
233.712
 21
87.9369
 31
0.0
  0
LINE
  8
0
 62
     0
 10
233.712
 20
87.9369
 30
0.0
 11
219.994
 21
85.1447
 31
0.0
  0
LINE
  8
0
 62
     0
 10
78.1981
 20
76.116
 30
0.0
 11
91.918
 21
73.3242
 31
0.0
  0
LINE
  8
0
 62
     0
 10
91.918
 20
73.3242
 30
0.0
 11
94.7085
 21
87.0437
 31
0.0
  0
LINE
  8
0
 62
     0
 10
94.7085
 20
87.0437
 30
0.0
 11
80.99
 21
89.8356
 31
0.0
  0
LINE
  8
0
 62
     0
 10
80.99
 20
89.8356
 30
0.0
 11
78.1981
 21
76.116
 31
0.0
  0
LINE
  8
0
 62
     0
 10
39.5277
 20
88.6435
 30
0.0
 11
53.527
 21
88.6435
 31
0.0
  0
LINE
  8
0
 62
     0
 10
53.527
 20
88.6435
 30
0.0
 11
53.527
 21
74.6428
 31
0.0
  0
LINE
  8
0
 62
     0
 10
53.527
 20
74.6428
 30
0.0
 11
39.5277
 21
74.6428
 31
0.0
  0
LINE
  8
0
 62
     0
 10
39.5277
 20
74.6428
 30
0.0
 11
39.5277
 21
88.6435
 31
0.0
  0
LINE
  8
0
 62
     0
 10
58.5777
 20
88.6435
 30
0.0
 11
72.577
 21
88.6435
 31
0.0
  0
LINE
  8
0
 62
     0
 10
72.577
 20
88.6435
 30
0.0
 11
72.577
 21
74.6428
 31
0.0
  0
LINE
  8
0
 62
     0
 10
72.577
 20
74.6428
 30
0.0
 11
58.5777
 21
74.6428
 31
0.0
  0
LINE
  8
0
 62
     0
 10
58.5777
 20
74.6428
 30
0.0
 11
58.5777
 21
88.6435
 31
0.0
  0
LINE
  8
0
 62
     0
 10
260.984
 20
88.6435
 30
0.0
 11
274.983
 21
88.6435
 31
0.0
  0
LINE
  8
0
 62
     0
 10
274.983
 20
88.6435
 30
0.0
 11
274.983
 21
74.6428
 31
0.0
  0
LINE
  8
0
 62
     0
 10
274.983
 20
74.6428
 30
0.0
 11
260.984
 21
74.6428
 31
0.0
  0
LINE
  8
0
 62
     0
 10
260.984
 20
74.6428
 30
0.0
 11
260.984
 21
88.6435
 31
0.0
  0
LINE
  8
0
 62
     0
 10
241.934
 20
89.596
 30
0.0
 11
255.933
 21
89.596
 31
0.0
  0
LINE
  8
0
 62
     0
 10
255.933
 20
89.596
 30
0.0
 11
255.933
 21
75.5964
 31
0.0
  0
LINE
  8
0
 62
     0
 10
255.933
 20
75.5964
 30
0.0
 11
241.934
 21
75.5964
 31
0.0
  0
LINE
  8
0
 62
     0
 10
241.934
 20
75.5964
 30
0.0
 11
241.934
 21
89.596
 31
0.0
  0
ENDSEC
  0
EOF
